<svg width="100" height="100" viewBox="0 0 100 100" fill="none" xmlns="http://www.w3.org/2000/svg">
<g clip-path="url(#clip0_24_39)">
<rect y="100" width="100" height="100" transform="rotate(-90 0 100)" fill="white"/>
<g clip-path="url(#clip1_24_39)">
<rect y="34" width="6" height="100" transform="rotate(-90 0 34)" fill="#FFE6E6"/>
<rect y="26" width="6" height="100" transform="rotate(-90 0 26)" fill="#FFE6E6"/>
</g>
<path d="M10.5 123.5L10.5 36.5L88.5 36.5L88.5 123.5L10.5 123.5Z" fill="#F5F5F2" fill-opacity="0.8" stroke="#666666"/>
<path d="M10.5 16.5L10.5 -10.5L88.5 -10.5V16.5L10.5 16.5Z" stroke="#E6E6E6"/>
</g>
<rect x="0.05" y="99.95" width="99.9" height="99.9" transform="rotate(-90 0.05 99.95)" stroke="black" stroke-width="0.1"/>
<defs>
<clipPath id="clip0_24_39">
<rect y="100" width="100" height="100" transform="rotate(-90 0 100)" fill="white"/>
</clipPath>
<clipPath id="clip1_24_39">
<rect width="90" height="100" fill="white" transform="matrix(0 -1 1 0 0 95)"/>
</clipPath>
</defs>
</svg>
