<svg width="100" height="100" viewBox="0 0 100 100" fill="none" xmlns="http://www.w3.org/2000/svg">
<rect x="0.05" y="0.05" width="99.9" height="99.9" fill="white"/>
<rect x="0.05" y="0.05" width="99.9" height="99.9" stroke="black" stroke-width="0.1"/>
<g clip-path="url(#clip0_17_230)">
<rect x="5" width="6" height="100" fill="#FF0808" fill-opacity="0.1"/>
<rect x="13" width="5" height="100" fill="#FF0808" fill-opacity="0.1"/>
<rect x="20" width="6" height="100" fill="#FF0808" fill-opacity="0.1"/>
<rect x="28" width="6" height="100" fill="#FF0808" fill-opacity="0.1"/>
<rect x="36" width="5" height="100" fill="#FF0808" fill-opacity="0.1"/>
<rect x="43" width="6" height="100" fill="#FF0808" fill-opacity="0.1"/>
<rect x="51" width="6" height="100" fill="#FF0808" fill-opacity="0.1"/>
<rect x="59" width="5" height="100" fill="#FF0808" fill-opacity="0.1"/>
<rect x="66" width="6" height="100" fill="#FF0808" fill-opacity="0.1"/>
<rect x="74" width="6" height="100" fill="#FF0808" fill-opacity="0.1"/>
<rect x="82" width="5" height="100" fill="#FF0808" fill-opacity="0.1"/>
<rect x="89" width="6" height="100" fill="#FF0808" fill-opacity="0.1"/>
</g>
<path d="M20.5 15.5H38.1667V30.5H20.5V15.5Z" fill="#F5F5F2" stroke="#666666"/>
<path d="M62.5 15.5H79.5V30.5H62.5V15.5Z" fill="#F5F5F2" stroke="#666666"/>
<path d="M41.5 15.5H59.1667V30.5H41.5V15.5Z" fill="#F5F5F2" stroke="#666666"/>
<path d="M20.5 33.5H38.17V48.5H20.5V33.5Z" fill="#F5F5F2" stroke="#666666"/>
<path d="M41.5 33.5H59.17V48.5H41.5V33.5Z" fill="#F5F5F2" stroke="#666666"/>
<path d="M62.5 33.5H79.5V48.5H62.5V33.5Z" fill="#F5F5F2" stroke="#666666"/>
<path d="M20.5 51.5H38.17V66.5H20.5V51.5Z" fill="#F5F5F2" stroke="#666666"/>
<path d="M41.5 51.5H59.17V66.5H41.5V51.5Z" fill="#F5F5F2" stroke="#666666"/>
<path d="M62.5 51.5H79.5V66.5H62.5V51.5Z" fill="#F5F5F2" stroke="#666666"/>
<path d="M20.5 69.5H38.17V84.5H20.5V69.5Z" fill="#F5F5F2" stroke="#666666"/>
<path d="M41.5 69.5H59.17V84.5H41.5V69.5Z" fill="#F5F5F2" stroke="#666666"/>
<path d="M62.5 69.5H79.5V84.5H62.5V69.5Z" fill="#F5F5F2" stroke="#666666"/>
<defs>
<clipPath id="clip0_17_230">
<rect width="90" height="100" fill="white" transform="translate(5)"/>
</clipPath>
</defs>
</svg>
