<svg width="100" height="100" viewBox="0 0 100 100" fill="none" xmlns="http://www.w3.org/2000/svg">
<rect x="0.05" y="0.05" width="99.9" height="99.9" fill="white"/>
<rect x="0.05" y="0.05" width="99.9" height="99.9" stroke="black" stroke-width="0.1"/>
<g clip-path="url(#clip0_1_702)">
<rect x="5" width="6" height="100" fill="#FF0808" fill-opacity="0.1"/>
<rect x="13" width="5" height="100" fill="#FF0808" fill-opacity="0.1"/>
<rect x="20" width="6" height="100" fill="#FF0808" fill-opacity="0.1"/>
<rect x="28" width="6" height="100" fill="#FF0808" fill-opacity="0.1"/>
<rect x="36" width="5" height="100" fill="#FF0808" fill-opacity="0.1"/>
<rect x="43" width="6" height="100" fill="#FF0808" fill-opacity="0.1"/>
<rect x="51" width="6" height="100" fill="#FF0808" fill-opacity="0.1"/>
<rect x="59" width="5" height="100" fill="#FF0808" fill-opacity="0.1"/>
<rect x="66" width="6" height="100" fill="#FF0808" fill-opacity="0.1"/>
<rect x="74" width="6" height="100" fill="#FF0808" fill-opacity="0.1"/>
<rect x="82" width="5" height="100" fill="#FF0808" fill-opacity="0.1"/>
<rect x="89" width="6" height="100" fill="#FF0808" fill-opacity="0.1"/>
</g>
<g clip-path="url(#clip1_1_702)">
<path d="M5.5 15.5H25.5407V30.5H5.5V15.5Z" fill="#F5F5F2" stroke="#666666"/>
<path d="M5.5 33.5H25.5407V48.5H5.5V33.5Z" fill="#F5F5F2" stroke="#666666"/>
<path d="M5.5 51.5H25.5407V66.5H5.5V51.5Z" fill="#F5F5F2" stroke="#666666"/>
<path d="M5.5 69.5H25.5407V84.5H5.5V69.5Z" fill="#F5F5F2" stroke="#666666"/>
<path d="M51.5891 15.5H71.6297V30.5H51.5891V15.5Z" fill="#F5F5F2" stroke="#666666"/>
<path d="M74.6336 15.5H94.6743V30.5H74.6336V15.5Z" fill="#F5F5F2" stroke="#666666"/>
<path d="M51.5891 33.5H71.6297V48.5H51.5891V33.5Z" fill="#F5F5F2" stroke="#666666"/>
<path d="M74.6336 33.5H94.6743V48.5H74.6336V33.5Z" fill="#F5F5F2" stroke="#666666"/>
<path d="M51.5891 51.5H71.6297V66.5H51.5891V51.5Z" fill="#F5F5F2" stroke="#666666"/>
<path d="M74.6336 51.5H94.6743V66.5H74.6336V51.5Z" fill="#F5F5F2" stroke="#666666"/>
<path d="M51.5891 69.5H71.6297V84.5H51.5891V69.5Z" fill="#F5F5F2" stroke="#666666"/>
<path d="M74.6336 69.5H94.6743V84.5H74.6336V69.5Z" fill="#F5F5F2" stroke="#666666"/>
<path d="M28.5446 15.5H48.5852V30.5H28.5446V15.5Z" fill="#F5F5F2" stroke="#666666"/>
<path d="M28.5446 33.5H48.5852V48.5H28.5446V33.5Z" fill="#F5F5F2" stroke="#666666"/>
<path d="M28.5446 51.5H48.5852V66.5H28.5446V51.5Z" fill="#F5F5F2" stroke="#666666"/>
<path d="M28.5446 69.5H48.5852V84.5H28.5446V69.5Z" fill="#F5F5F2" stroke="#666666"/>
</g>
<defs>
<clipPath id="clip0_1_702">
<rect width="90" height="100" fill="white" transform="translate(5)"/>
</clipPath>
<clipPath id="clip1_1_702">
<rect width="90" height="70" fill="white" transform="translate(5 15)"/>
</clipPath>
</defs>
</svg>
