<svg xmlns="http://www.w3.org/2000/svg" width="52" height="41" fill="none" xmlns:v="https://vecta.io/nano"><path d="M20.495 27.51h9.088a.45.45 0 0 0 .417-.367v-.467-11.673a3.33 3.33 0 0 0-.977-2.358 3.34 3.34 0 0 0-2.358-.977h-7.838c-.111 0-.217.044-.295.122s-.122.184-.122.295v.417a4.17 4.17 0 0 1-4.169 4.169 4.17 4.17 0 0 1-4.169-4.169v-.417c0-.111-.044-.217-.122-.295s-.184-.122-.295-.122h-6.32a3.33 3.33 0 0 0-2.358.977C.352 13.271 0 14.118 0 15.003v21.679a3.33 3.33 0 0 0 .977 2.358 3.34 3.34 0 0 0 2.358.977h13.341.517c.105-.008.202-.056.273-.133a.42.42 0 0 0 .11-.284v-9.172a2.92 2.92 0 0 1 2.918-2.918zm-8.338 4.169H7.154a1.25 1.25 0 1 1 0-2.502h5.003a1.25 1.25 0 1 1 0 2.502zm-5.003-7.504a1.25 1.25 0 1 1 0-2.502h15.842a1.25 1.25 0 1 1 0 2.502H7.154zm21.045 6.553a.45.45 0 0 0 .1-.467c-.033-.075-.086-.138-.154-.182s-.148-.068-.229-.068h-7.421a.42.42 0 0 0-.295.122c-.078.078-.122.184-.122.295v7.438a.42.42 0 0 0 .068.229c.045.068.108.122.183.154s.158.041.238.026.154-.053.213-.109l7.421-7.437zM12.307 9.616c.076.032.142.085.189.153s.074.148.077.231v2.501a1.67 1.67 0 0 0 .488 1.179c.312.313.737.489 1.179.489a1.67 1.67 0 0 0 1.668-1.668V10c0-.081.023-.161.068-.229a.42.42 0 0 1 .182-.154 5 5 0 0 0 3.085-4.619c-.001-.905-.247-1.792-.713-2.568A5.01 5.01 0 0 0 16.6.591c-.798-.427-1.696-.629-2.6-.585a5 5 0 0 0-2.532.833 5.01 5.01 0 0 0-1.745 2.015 5 5 0 0 0-.463 2.625c.086.901.415 1.761.951 2.49a5 5 0 0 0 2.095 1.648z" fill="#007fa3"/><circle cx="33.5" cy="21.5" r="18.5" fill="#6fc7ea" style="mix-blend-mode:multiply"/></svg>