<svg xmlns="http://www.w3.org/2000/svg" width="34" height="34"><path d="M30.458 0H3.542A3.54 3.54 0 0 0 0 3.542v26.917a3.54 3.54 0 0 0 1.037 2.504c.329.329.719.59 1.149.768a3.54 3.54 0 0 0 1.355.27h26.917a3.54 3.54 0 0 0 1.355-.27c.43-.178.82-.439 1.149-.768s.59-.719.768-1.149a3.54 3.54 0 0 0 .27-1.355V3.542a3.54 3.54 0 0 0-.27-1.355c-.178-.43-.439-.82-.768-1.149A3.54 3.54 0 0 0 30.458 0zm-4.25 13.458h-6.375c-.376 0-.736-.149-1.002-.415s-.415-.626-.415-1.002.149-.736.415-1.002.626-.415 1.002-.415h6.375c.376 0 .736.149 1.002.415s.415.626.415 1.002-.149.736-.415 1.002-.626.415-1.002.415zm1.417 11.333c0 .376-.149.736-.415 1.002s-.626.415-1.002.415h-6.375c-.376 0-.736-.149-1.002-.415s-.415-.626-.415-1.002.149-.736.415-1.002.626-.415 1.002-.415h6.375c.376 0 .736.149 1.002.415s.415.626.415 1.002zM16.008 7.933l-4.25 5.667c-.122.163-.277.298-.455.396a1.42 1.42 0 0 1-1.176.086c-.191-.071-.364-.182-.508-.326l-2.125-2.125c-.132-.132-.237-.289-.308-.461s-.108-.358-.108-.544.037-.372.108-.544.176-.329.308-.461A1.42 1.42 0 0 1 8.5 9.203a1.42 1.42 0 0 1 1.006.417l.963.978 3.272-4.363c.225-.301.561-.499.933-.552s.75.044 1.05.269.499.561.552.933-.044.75-.269 1.05zm0 14.167l-4.25 5.667c-.121.163-.277.299-.455.396a1.42 1.42 0 0 1-.579.171c-.203.015-.407-.014-.598-.085s-.364-.182-.508-.326l-2.125-2.125c-.267-.267-.417-.629-.417-1.006s.15-.739.417-1.006.629-.417 1.006-.417.739.15 1.006.417l.963.978 3.272-4.363c.225-.301.561-.499.933-.552s.75.044 1.05.269.499.561.552.933-.044.75-.269 1.05z" /></svg>