<svg xmlns="http://www.w3.org/2000/svg" width="37" height="37" xmlns:v="https://vecta.io/nano"><g clip-path="url(#A)"><path d="M19.409 17.591l-7.714-7.714c-.502-.502-1.316-.502-1.818 0s-.502 1.316 0 1.818l6.808 6.804-6.806 6.806c-.502.502-.502 1.316 0 1.818.25.251.579.376.908.376a1.28 1.28 0 0 0 .909-.377l7.714-7.714c.501-.503.501-1.315-.001-1.817zm7.714 0l-7.714-7.714c-.502-.502-1.316-.502-1.818 0s-.502 1.316 0 1.818l6.808 6.804-6.806 6.806c-.502.502-.502 1.316 0 1.818.249.251.579.376.908.376a1.28 1.28 0 0 0 .909-.377l7.714-7.714c.502-.503.502-1.315-.001-1.817z" /></g><defs><clipPath id="A"><path  transform="translate(5 5)" d="M0 0h27v27H0z"/></clipPath></defs></svg>