<svg xmlns="http://www.w3.org/2000/svg" width="37" height="37" xmlns:v="https://vecta.io/nano"><g clip-path="url(#A)"><path d="M12.602 18.501l6.806-6.805c.502-.502.502-1.316 0-1.818s-1.316-.502-1.818 0l-7.713 7.713c-.502.502-.502 1.316 0 1.818l7.713 7.713c.249.253.579.378.908.378a1.28 1.28 0 0 0 .909-.377c.502-.502.502-1.316 0-1.818l-6.804-6.805zm7.716 0l6.805-6.805c.502-.502.502-1.316 0-1.818s-1.316-.502-1.818 0l-7.713 7.713c-.502.502-.502 1.316 0 1.818l7.713 7.713a1.26 1.26 0 0 0 .906.378 1.28 1.28 0 0 0 .909-.377c.502-.502.502-1.316 0-1.818l-6.802-6.805z" /></g><defs><clipPath id="A"><path fill="#fff" transform="translate(5 5)" d="M0 0h27v27H0z"/></clipPath></defs></svg>