<svg width="24" height="24" viewBox="0 0 24 24" xmlns="http://www.w3.org/2000/svg">
<g clip-path="url(#clip0_689_9346)">
<path d="M23.2499 12.8007C23.051 12.8007 22.8602 12.8797 22.7196 13.0204C22.5789 13.161 22.4999 13.3518 22.4999 13.5507V19.7207C22.4973 19.7879 22.4688 19.8515 22.4203 19.8981C22.3718 19.9447 22.3071 19.9707 22.2399 19.9707C19.2353 19.9667 16.2579 20.5405 13.4699 21.6607C13.3951 21.7027 13.3107 21.7248 13.2249 21.7248C13.1391 21.7248 13.0547 21.7027 12.9799 21.6607C12.9105 21.6121 12.8535 21.5478 12.8136 21.4731C12.7736 21.3984 12.7518 21.3154 12.7499 21.2307V9.37068C12.7499 6.68068 7.06989 5.29068 1.74989 5.14068C1.5181 5.12933 1.28648 5.16612 1.06962 5.24873C0.852761 5.33135 0.655369 5.45799 0.489888 5.62068C0.328437 5.78956 0.202017 5.98872 0.117917 6.2067C0.0338176 6.42467 -0.00629663 6.65713 -0.000112148 6.89068V19.7207C-0.000231617 20.178 0.178642 20.6171 0.498229 20.9442C0.817816 21.2713 1.25273 21.4602 1.70989 21.4707C5.70989 21.5807 9.39989 22.4707 10.8099 23.5707C11.144 23.8489 11.5651 24.0012 11.9999 24.0012C12.4347 24.0012 12.8557 23.8489 13.1899 23.5707C14.5999 22.4307 18.2499 21.5707 22.2899 21.4707C22.747 21.4602 23.182 21.2713 23.5015 20.9442C23.8211 20.6171 24 20.178 23.9999 19.7207V13.5507C23.9999 13.3518 23.9209 13.161 23.7802 13.0204C23.6396 12.8797 23.4488 12.8007 23.2499 12.8007ZM11.2499 21.2107C11.248 21.2954 11.2261 21.3784 11.1862 21.4531C11.1462 21.5278 11.0893 21.5921 11.0199 21.6407C10.9451 21.6827 10.8607 21.7048 10.7749 21.7048C10.6891 21.7048 10.6047 21.6827 10.5299 21.6407C7.73851 20.5376 4.76126 19.9808 1.75989 20.0007C1.69263 20.0007 1.62797 19.9747 1.57949 19.9281C1.53101 19.8815 1.50247 19.8179 1.49989 19.7507V6.89068C1.49956 6.85523 1.50649 6.82009 1.52025 6.78742C1.53401 6.75474 1.5543 6.72523 1.57989 6.70068C1.59953 6.67768 1.62413 6.65942 1.65184 6.6473C1.67956 6.63517 1.70966 6.62949 1.73989 6.63068C7.98989 6.82068 11.2499 8.51068 11.2499 9.37068V21.2107Z" />
<path d="M9.25989 10.1492C7.57637 9.6085 5.83379 9.27274 4.06989 9.14919C3.97185 9.13814 3.87259 9.1468 3.77795 9.17468C3.6833 9.20255 3.59519 9.24907 3.51879 9.31149C3.44239 9.37392 3.37924 9.45099 3.33306 9.53818C3.28688 9.62537 3.25861 9.72091 3.24989 9.81919C3.24026 9.91776 3.25025 10.0173 3.27927 10.112C3.3083 10.2066 3.3558 10.2947 3.41902 10.3709C3.48224 10.4471 3.55994 10.5101 3.64762 10.5561C3.73531 10.6022 3.83124 10.6304 3.92989 10.6392C5.58146 10.7723 7.21036 11.1082 8.77989 11.6392C8.87417 11.6751 8.97471 11.6916 9.07551 11.6877C9.17631 11.6838 9.27529 11.6596 9.36653 11.6166C9.45777 11.5736 9.53939 11.5126 9.60652 11.4373C9.67365 11.362 9.72489 11.274 9.75719 11.1784C9.7895 11.0829 9.80219 10.9818 9.79451 10.8812C9.78684 10.7806 9.75896 10.6826 9.71253 10.5931C9.6661 10.5035 9.60208 10.4242 9.52431 10.36C9.44654 10.2958 9.35661 10.2479 9.25989 10.2192V10.1492Z" />
<path d="M9.25998 13.8203C7.57646 13.2796 5.83389 12.9438 4.06999 12.8203C3.96855 12.8038 3.86481 12.8083 3.7652 12.8335C3.66558 12.8588 3.57221 12.9042 3.4909 12.9671C3.40958 13.0299 3.34204 13.1088 3.29247 13.1988C3.2429 13.2888 3.21237 13.3881 3.20275 13.4904C3.19314 13.5927 3.20465 13.6959 3.23658 13.7936C3.26852 13.8913 3.32018 13.9813 3.38837 14.0582C3.45656 14.1351 3.53983 14.1971 3.633 14.2405C3.72617 14.2839 3.82725 14.3076 3.92999 14.3103C5.58099 14.4473 7.20944 14.7831 8.77998 15.3103C8.87612 15.3497 8.97938 15.3686 9.08322 15.366C9.18707 15.3634 9.28924 15.3392 9.38325 15.295C9.47727 15.2508 9.56108 15.1876 9.62937 15.1093C9.69766 15.031 9.74895 14.9394 9.77998 14.8403C9.82211 14.7398 9.84183 14.6313 9.83776 14.5224C9.8337 14.4135 9.80596 14.3068 9.75646 14.2097C9.70697 14.1127 9.63692 14.0275 9.55117 13.9603C9.46543 13.893 9.36606 13.8452 9.25998 13.8203Z" />
<path d="M9.25994 17.4896C7.5753 16.9532 5.83326 16.6176 4.06994 16.4896C3.8697 16.471 3.67029 16.5327 3.51557 16.6612C3.36085 16.7897 3.2635 16.9743 3.24494 17.1746C3.22637 17.3748 3.28811 17.5742 3.41658 17.7289C3.54504 17.8837 3.7297 17.981 3.92994 17.9996C5.58164 18.1317 7.21067 18.4676 8.77994 18.9996C8.96957 19.0632 9.17672 19.0489 9.35582 18.9599C9.53491 18.8708 9.67129 18.7142 9.73494 18.5246C9.79859 18.3349 9.78431 18.1278 9.69523 17.9487C9.60615 17.7696 9.44957 17.6332 9.25994 17.5696V17.4896Z" />
<path d="M18.5 3C18.7652 3 19.0196 2.89464 19.2071 2.70711C19.3946 2.51957 19.5 2.26522 19.5 2V1C19.5 0.734784 19.3946 0.48043 19.2071 0.292893C19.0196 0.105357 18.7652 0 18.5 0C18.2348 0 17.9804 0.105357 17.7929 0.292893C17.6054 0.48043 17.5 0.734784 17.5 1V2C17.5 2.26522 17.6054 2.51957 17.7929 2.70711C17.9804 2.89464 18.2348 3 18.5 3Z" />
<path d="M22.3499 4.1208C22.496 4.12226 22.6407 4.09168 22.7737 4.03121C22.9067 3.97074 23.0249 3.88185 23.1199 3.7708L23.7599 3.0008C23.8573 2.90301 23.9335 2.78611 23.9835 2.65745C24.0336 2.52879 24.0564 2.39116 24.0507 2.25323C24.0449 2.1153 24.0107 1.98005 23.9501 1.85601C23.8895 1.73197 23.8039 1.62182 23.6986 1.53249C23.5934 1.44316 23.4708 1.37659 23.3385 1.33698C23.2063 1.29736 23.0672 1.28556 22.9302 1.30231C22.7932 1.31906 22.6611 1.364 22.5423 1.4343C22.4235 1.50461 22.3205 1.59875 22.2399 1.7108L21.5899 2.4808C21.5051 2.58122 21.441 2.69738 21.4011 2.82261C21.3612 2.94785 21.3465 3.07972 21.3576 3.21067C21.3688 3.34163 21.4056 3.4691 21.466 3.5858C21.5265 3.7025 21.6094 3.80614 21.7099 3.8908C21.8898 4.03988 22.1162 4.12125 22.3499 4.1208Z" />
<path d="M13.8799 3.7708C14.051 3.97369 14.2956 4.10031 14.5601 4.12282C14.8245 4.14532 15.087 4.06186 15.2899 3.8908C15.4928 3.71973 15.6194 3.47508 15.6419 3.21065C15.6644 2.94622 15.581 2.68369 15.4099 2.4808L14.7599 1.7108C14.6793 1.59875 14.5763 1.50461 14.4575 1.4343C14.3387 1.364 14.2066 1.31906 14.0696 1.30231C13.9325 1.28556 13.7935 1.29736 13.6613 1.33698C13.529 1.37659 13.4064 1.44316 13.3012 1.53249C13.1959 1.62182 13.1103 1.73197 13.0497 1.85601C12.9891 1.98005 12.9549 2.1153 12.9491 2.25323C12.9434 2.39116 12.9662 2.52879 13.0163 2.65745C13.0663 2.78611 13.1425 2.90301 13.2399 3.0008L13.8799 3.7708Z" />
<path d="M18.5 16.7491C18.6981 16.7465 18.8874 16.6666 19.0275 16.5265C19.1676 16.3864 19.2474 16.1972 19.25 15.9991V15.7591C19.2489 15.6754 19.2707 15.5929 19.313 15.5207C19.3553 15.4484 19.4165 15.3891 19.49 15.3491C19.7952 15.1729 20.0484 14.9191 20.224 14.6136C20.3996 14.308 20.4914 13.9615 20.49 13.6091V12.8291C20.4905 12.7418 20.5139 12.6562 20.5577 12.5808C20.6016 12.5053 20.6644 12.4427 20.74 12.3991C21.5979 11.9038 22.2684 11.1392 22.6474 10.224C23.0265 9.30883 23.093 8.29412 22.8367 7.33727C22.5803 6.38042 22.0153 5.5349 21.2294 4.93186C20.4435 4.32882 19.4806 4.00195 18.49 4.00195C17.4994 4.00195 16.5365 4.32882 15.7506 4.93186C14.9647 5.5349 14.3997 6.38042 14.1433 7.33727C13.8869 8.29412 13.9534 9.30883 14.3325 10.224C14.7116 11.1392 15.3821 11.9038 16.24 12.3991C16.3156 12.4427 16.3784 12.5053 16.4223 12.5808C16.4661 12.6562 16.4895 12.7418 16.49 12.8291V13.6091C16.4886 13.9615 16.5803 14.308 16.7559 14.6136C16.9316 14.9191 17.1848 15.1729 17.49 15.3491C17.5635 15.3891 17.6247 15.4484 17.667 15.5207C17.7093 15.5929 17.7311 15.6754 17.73 15.7591V15.9991C17.7313 16.0989 17.7522 16.1974 17.7917 16.2892C17.8311 16.3809 17.8881 16.4639 17.9596 16.5336C18.0311 16.6032 18.1157 16.6581 18.2084 16.6951C18.3011 16.732 18.4002 16.7504 18.5 16.7491ZM16 8.49907C16 8.00461 16.1466 7.52126 16.4213 7.11014C16.696 6.69902 17.0865 6.37859 17.5433 6.18937C18.0001 6.00015 18.5028 5.95064 18.9877 6.0471C19.4727 6.14357 19.9181 6.38167 20.2678 6.7313C20.6174 7.08093 20.8555 7.52639 20.952 8.01134C21.0484 8.49629 20.9989 8.99896 20.8097 9.45578C20.6205 9.91259 20.3 10.303 19.8889 10.5777C19.4778 10.8524 18.9944 10.9991 18.5 10.9991C17.837 10.9991 17.2011 10.7357 16.7322 10.2668C16.2634 9.79799 16 9.16211 16 8.49907Z" />
</g>
<defs>
<clipPath id="clip0_689_9346">
<rect width="24" height="24" fill="white"/>
</clipPath>
</defs>
</svg>
