<svg width="87" height="65" viewBox="0 0 87 65" fill="none" xmlns="http://www.w3.org/2000/svg">
<g clip-path="url(#clip0_2650_9967)">
<g clip-path="url(#clip1_2650_9967)">
<path d="M55.716 58.2002L49.8835 51.2012C49.7761 51.0698 49.6409 50.9639 49.4876 50.8913C49.3342 50.8187 49.1666 50.7811 48.997 50.7813H7.00305C6.83337 50.7811 6.66578 50.8187 6.51244 50.8913C6.3591 50.9639 6.22385 51.0698 6.11651 51.2012L0.284021 58.2002C0.134395 58.3653 0.0386163 58.572 0.00944134 58.7929C-0.0197336 59.0138 0.0190795 59.2384 0.120712 59.4367C0.211223 59.6391 0.358665 59.8109 0.545072 59.931C0.731478 60.0511 0.948801 60.1144 1.17056 60.1132H54.8294C55.0512 60.1144 55.2685 60.0511 55.4549 59.931C55.6413 59.8109 55.7888 59.6391 55.8793 59.4367C55.9809 59.2384 56.0197 59.0138 55.9906 58.7929C55.9614 58.572 55.8656 58.3653 55.716 58.2002Z" fill="#AB1368"/>
<path d="M15.1684 28.6172H8.16943C7.52519 28.6172 7.00293 29.1394 7.00293 29.7837V47.2811C7.00293 47.9254 7.52519 48.4476 8.16943 48.4476H15.1684C15.8127 48.4476 16.3349 47.9254 16.3349 47.2811V29.7837C16.3349 29.1394 15.8127 28.6172 15.1684 28.6172Z" fill="#AB1368"/>
<path d="M31.4995 28.6172H24.5005C23.8562 28.6172 23.334 29.1394 23.334 29.7837V47.2811C23.334 47.9254 23.8562 48.4476 24.5005 48.4476H31.4995C32.1437 48.4476 32.666 47.9254 32.666 47.2811V29.7837C32.666 29.1394 32.1437 28.6172 31.4995 28.6172Z" fill="#AB1368"/>
<path d="M47.8305 28.6172H40.8315C40.1873 28.6172 39.665 29.1394 39.665 29.7837V47.2811C39.665 47.9254 40.1873 48.4476 40.8315 48.4476H47.8305C48.4748 48.4476 48.997 47.9254 48.997 47.2811V29.7837C48.997 29.1394 48.4748 28.6172 47.8305 28.6172Z" fill="#AB1368"/>
<path d="M4.85635 25.7724C4.96592 25.9309 5.11233 26.0604 5.28301 26.1499C5.45369 26.2393 5.64353 26.2859 5.83621 26.2857H50.1631C50.3558 26.2859 50.5456 26.2393 50.7163 26.1499C50.887 26.0604 51.0334 25.9309 51.143 25.7724L53.476 22.2729C53.5952 22.0965 53.6639 21.8909 53.6746 21.6782C53.6853 21.4656 53.6376 21.2541 53.5367 21.0666C53.4357 20.8791 53.2854 20.7229 53.102 20.6147C52.9185 20.5066 52.709 20.4507 52.4961 20.4532H3.50322C3.29031 20.4507 3.08079 20.5066 2.89737 20.6147C2.71395 20.7229 2.56362 20.8791 2.46267 21.0666C2.36173 21.2541 2.31402 21.4656 2.32472 21.6782C2.33541 21.8909 2.40411 22.0965 2.52336 22.2729L4.85635 25.7724Z" fill="#AB1368"/>
<path d="M3.50332 18.1193H52.4962C52.8056 18.1843 53.1281 18.1237 53.3928 17.9509C53.6575 17.778 53.8427 17.5071 53.9077 17.1978C53.9726 16.8884 53.912 16.5659 53.7392 16.3012C53.5664 16.0365 53.2955 15.8513 52.9861 15.7863L28.4897 4.12133C28.3387 4.04165 28.1705 4 27.9998 4C27.829 4 27.6608 4.04165 27.5098 4.12133L3.01339 15.7863C2.70401 15.8513 2.43312 16.0365 2.2603 16.3012C2.08748 16.5659 2.02689 16.8884 2.09185 17.1978C2.15682 17.5071 2.34203 17.778 2.60673 17.9509C2.87143 18.1237 3.19394 18.1843 3.50332 18.1193Z" fill="#AB1368"/>
</g>
<g style="mix-blend-mode:multiply" clip-path="url(#clip2_2650_9967)">
<circle cx="54.7965" cy="32.2037" r="32.2037" fill="#F7BADC"/>
</g>
</g>
<defs>
<clipPath id="clip0_2650_9967">
<rect width="87.0002" height="64.4074" fill="white"/>
</clipPath>
<clipPath id="clip1_2650_9967">
<rect width="56" height="56.1137" fill="white" transform="translate(0 4)"/>
</clipPath>
<clipPath id="clip2_2650_9967">
<rect width="64.4074" height="64.4074" fill="white" transform="translate(22.5928)"/>
</clipPath>
</defs>
</svg>
