<svg xmlns="http://www.w3.org/2000/svg" width="123" height="71"  xmlns:v="https://vecta.io/nano"><path d="M54.516 17.05l7.87-7.87 7.87 7.87h4.18L62.386 5l-12.05 12.05h4.18zM31.289 40.393V24.659h4.821c5.15 0 7.67 2.585 7.67 7.648 0 5.281-2.805 8.086-7.977 8.086h-4.514zM36 37.763c3.287 0 4.755-1.863 4.755-5.391 0-3.375-1.424-5.084-4.449-5.084h-1.994v10.475H36zm13.457 2.63V24.659h10.168v2.542h-7.144v3.857h5.106v2.454h-5.106v4.339h7.385v2.542h-10.41zm17.093 0V24.659h10.387v2.542h-7.363v3.857h5.304v2.454h-5.303v6.881H66.55zm18.847 0v-6.224l-4.953-9.51h3.265l3.177 6.552h.044l3.396-6.552h3.156l-5.062 9.51v6.224h-3.024zM17.125 63.737v-1.446h-.044C16.051 63.496 14.758 64 13.115 64 9.082 64 7 60.866 7 55.804c0-5.128 2.433-8.064 6.552-8.064 3.112 0 5.04 1.424 5.808 4.668l-2.74.526c-.548-2.016-1.578-2.695-3.068-2.695-2.169 0-3.528 1.972-3.528 5.588 0 3.682 1.095 5.742 3.703 5.742 1.929 0 3.156-1.139 3.156-3.025 0-.131 0-.263-.022-.438h-3.134v-2.192h5.785v7.824h-2.389v-.001zm18.168 0l-2.871-6.311h-2.936v6.311h-3.024V48.003h5.369c4.163 0 6.114 1.534 6.114 4.536 0 2.06-1.074 3.375-2.739 4.054l3.441 7.144h-3.353 0zm-3.441-8.766c1.139 0 3.046-.219 3.046-2.235 0-1.95-1.578-2.191-2.893-2.191h-2.52v4.427h2.367zm22.025 8.766l-1.14-4.142h-5.084l-1.139 4.142h-3.046l4.734-15.734H52.3l4.755 15.734h-3.178zm-5.522-6.662h3.681l-1.819-6.574h-.044l-1.819 6.575zm16.842 6.662l-4.865-15.734h3.288l3.309 12.03h.044l3.66-12.03h3.221l-5.15 15.734h-3.506zm14.794 0V48.003h3.024v15.734h-3.024zm13.871 0V50.545h-4.251v-2.542h11.549v2.542h-4.273v13.192h-3.025zm15.824 0v-6.224l-4.953-9.51h3.265l3.178 6.552h.043l3.397-6.552h3.156l-5.062 9.51v6.224h-3.024z"/></svg>