<svg xmlns="http://www.w3.org/2000/svg" width="32" height="32"  xmlns:v="https://vecta.io/nano"><path d="M16.003 20.767c-.178 0-.344-.028-.5-.083s-.3-.15-.433-.284l-4.8-4.8c-.244-.245-.367-.556-.367-.933s.122-.689.367-.933.561-.372.951-.383.706.106.949.349l2.5 2.5V6.667a1.29 1.29 0 0 1 .384-.951c.256-.256.572-.384.949-.383a1.29 1.29 0 0 1 .951.384c.256.256.384.572.383.949V16.2l2.5-2.5c.245-.244.561-.361.951-.351s.706.139.949.384.367.556.367.933-.122.689-.367.933l-4.8 4.8c-.133.133-.278.228-.433.284s-.322.083-.5.083zm-8 5.9c-.733 0-1.361-.261-1.884-.784A2.56 2.56 0 0 1 5.336 24v-2.667a1.29 1.29 0 0 1 .384-.951c.256-.256.572-.384.949-.383a1.29 1.29 0 0 1 .951.384c.256.256.384.572.383.949V24h16v-2.667a1.29 1.29 0 0 1 .384-.951c.256-.256.572-.384.949-.383a1.29 1.29 0 0 1 .951.384c.256.256.384.572.383.949V24c0 .733-.261 1.361-.784 1.884a2.56 2.56 0 0 1-1.883.783h-16z" /></svg>