<svg xmlns="http://www.w3.org/2000/svg" width="16" height="17"><path d="M9.143 1.643c0-.631.511-1.143 1.143-1.143h4.539a1.17 1.17 0 0 1 .468.087c.104.055.261.137.371.245.225.227.304.517.336.807v4.575a1.14 1.14 0 1 1-2.286 0V4.404l-6.05 6.046A1.14 1.14 0 1 1 6.05 8.836l6.046-6.05h-1.811c-.632 0-1.143-.512-1.143-1.143zM0 3.929c0-1.263 1.023-2.286 2.286-2.286h3.429c.632 0 1.143.512 1.143 1.143a1.14 1.14 0 0 1-1.143 1.143H2.286v10.286h10.286v-3.429a1.14 1.14 0 1 1 2.286 0v3.429a2.29 2.29 0 0 1-2.286 2.286H2.286C1.023 16.5 0 15.475 0 14.214V3.929z" /></svg>