<svg xmlns="http://www.w3.org/2000/svg" width="38" height="36"><path d="M37.458 3.405a2.75 2.75 0 0 0-.8-1.94c-.512-.514-1.207-.803-1.931-.803H18.729c-.414 0-.811.165-1.104.459a1.57 1.57 0 0 0-.457 1.108v13.324c0 .165-.051.325-.147.458a.78.78 0 0 1-.866.29.78.78 0 0 1-.392-.278l-2.965-3.997c-.034-.052-.081-.094-.135-.123s-.115-.045-.177-.045-.123.015-.177.045-.101.072-.135.123l-2.965 3.997a.78.78 0 0 1-.394.275c-.157.048-.325.045-.48-.009s-.285-.154-.38-.285a.8.8 0 0 1-.151-.452V2.23a1.57 1.57 0 0 0-.457-1.108C7.054.827 6.657.662 6.243.662H2.731c-.724 0-1.419.289-1.931.803a2.75 2.75 0 0 0-.8 1.94v29.784a2.75 2.75 0 0 0 .8 1.94c.512.514 1.207.803 1.931.803h31.996c.724 0 1.419-.289 1.931-.803a2.75 2.75 0 0 0 .8-1.94V3.405zM6.633 27.311a1.18 1.18 0 0 1 .343-.831 1.17 1.17 0 0 1 .828-.344h17.949a1.17 1.17 0 0 1 .828.344 1.18 1.18 0 0 1 0 1.663 1.17 1.17 0 0 1-.828.344H7.804c-.309-.004-.605-.129-.823-.349s-.343-.516-.347-.827zM30.435 9.676h-7.804a1.17 1.17 0 0 1-.828-.344 1.18 1.18 0 0 1 0-1.663 1.17 1.17 0 0 1 .828-.344h7.804a1.17 1.17 0 0 1 .828.344 1.18 1.18 0 0 1 0 1.663 1.17 1.17 0 0 1-.828.344zm1.171 5.095c-.004.31-.129.607-.347.827s-.514.345-.823.349h-7.804a1.17 1.17 0 0 1-.828-.344 1.18 1.18 0 0 1 0-1.663 1.17 1.17 0 0 1 .828-.344h7.804a1.17 1.17 0 0 1 .828.344 1.18 1.18 0 0 1 .343.831zm-1.171 5.095a1.17 1.17 0 0 1 .828.344 1.18 1.18 0 0 1 0 1.663 1.17 1.17 0 0 1-.828.344H7.804a1.17 1.17 0 0 1-.828-.344 1.18 1.18 0 0 1 0-1.663 1.17 1.17 0 0 1 .828-.344h22.631z" /></svg>