<svg xmlns="http://www.w3.org/2000/svg" width="36" height="40"><path d="M8.748.189c-.303.001-.593.121-.807.335s-.335.503-.336.805v2.795h2.287V1.33h0c-.001-.303-.122-.593-.336-.806S9.051.189 8.748.189zm1.145 3.935v3.023c-.001.631-.513 1.142-1.145 1.142s-1.142-.512-1.142-1.142V4.124H4.377A4.39 4.39 0 0 0 0 8.501v26.22c0 2.408 1.969 4.384 4.377 4.384h26.911c2.408 0 4.377-1.976 4.377-4.384V8.501a4.39 4.39 0 0 0-4.377-4.377h-3.235v3.023c-.001.63-.512 1.141-1.142 1.142s-1.142-.512-1.143-1.142V4.124H9.893zm15.876 0h2.285V1.329h0c-.001-.302-.122-.592-.336-.805s-.504-.334-.807-.335-.593.121-.807.335-.335.503-.336.805v2.795zm-7.932 6.767c1.225.003 2.334.779 2.739 1.936l1.377 3.962 4.207.085h.009c1.309.031 2.341.935 2.687 2.003s.038 2.404-1.006 3.195l-3.353 2.533 1.216 3.997v.009c.378 1.252-.157 2.517-1.064 3.177s-2.285.789-3.365.043l-3.454-2.399-3.45 2.39c-1.078.747-2.443.625-3.353-.034s-1.452-1.922-1.073-3.177l1.207-4.013-3.336-2.526a2.92 2.92 0 0 1-1.015-3.204c.348-1.068 1.386-1.972 2.696-2.001l4.208-.085 1.386-3.955a2.9 2.9 0 0 1 2.736-1.936h0z" /></svg>