<svg xmlns="http://www.w3.org/2000/svg" width="62" height="48" fill="none" xmlns:v="https://vecta.io/nano"><g clip-path="url(#A)"><path d="M37.458 10.405a2.75 2.75 0 0 0-.8-1.94c-.512-.514-1.207-.803-1.931-.803H18.729c-.414 0-.811.165-1.104.459a1.57 1.57 0 0 0-.457 1.108v13.324c0 .165-.051.325-.147.458a.78.78 0 0 1-.866.29.78.78 0 0 1-.392-.278l-2.965-3.997c-.034-.052-.081-.094-.135-.123s-.115-.045-.177-.045-.123.015-.177.045-.101.072-.135.123l-2.965 3.997a.78.78 0 0 1-.394.275c-.157.048-.325.045-.48-.009s-.285-.154-.38-.285a.8.8 0 0 1-.151-.452V9.23a1.57 1.57 0 0 0-.457-1.108c-.293-.294-.69-.459-1.104-.459H2.731c-.724 0-1.419.289-1.931.803a2.75 2.75 0 0 0-.8 1.94v29.784a2.75 2.75 0 0 0 .8 1.94c.512.514 1.207.803 1.931.803h31.996c.724 0 1.419-.289 1.931-.803a2.75 2.75 0 0 0 .8-1.94V10.405zM6.633 34.311a1.18 1.18 0 0 1 .343-.831 1.17 1.17 0 0 1 .828-.344h17.949a1.17 1.17 0 0 1 .828.344 1.18 1.18 0 0 1 0 1.663 1.17 1.17 0 0 1-.828.344H7.804c-.309-.004-.605-.129-.823-.349s-.343-.516-.347-.827zm23.802-17.635h-7.804a1.17 1.17 0 0 1-.828-.344 1.18 1.18 0 0 1 0-1.663 1.17 1.17 0 0 1 .828-.344h7.804a1.17 1.17 0 0 1 .828.344 1.18 1.18 0 0 1 0 1.663 1.17 1.17 0 0 1-.828.344zm1.171 5.095c-.004.311-.129.607-.347.827s-.514.345-.823.349h-7.804a1.17 1.17 0 0 1-.828-.344 1.18 1.18 0 0 1 0-1.663 1.17 1.17 0 0 1 .828-.344h7.804a1.17 1.17 0 0 1 .828.344 1.18 1.18 0 0 1 .343.831zm-1.171 5.095a1.17 1.17 0 0 1 .828.344 1.18 1.18 0 0 1 0 1.663 1.17 1.17 0 0 1-.828.344H7.804a1.17 1.17 0 0 1-.828-.344 1.18 1.18 0 0 1 0-1.663 1.17 1.17 0 0 1 .828-.344h22.631z" fill="#007fa3"/></g><ellipse cx="38.104" cy="24" rx="23.896" ry="24" fill="#6fc7ea" style="mix-blend-mode:multiply"/><defs><clipPath id="A"><path fill="#fff" transform="translate(0 6.486)" d="M0 0h37.458v37.622H0z"/></clipPath></defs></svg>