<svg xmlns="http://www.w3.org/2000/svg" width="53" height="37" fill="none" xmlns:v="https://vecta.io/nano"><path fill-rule="evenodd" d="M41.268 8.042c.977.397.977 1.789 0 2.186l-19.242 7.814a3.1 3.1 0 0 1-2.349-.006L5.396 12.15v14.224c1.333.598 2.256 1.94 2.256 3.512V36.1c0 .497-.4.9-.894.9H.913c-.494 0-.894-.403-.894-.9v-6.214c0-1.572.923-2.915 2.256-3.512v-15.51l-1.549-.638c-.969-.399-.969-1.782 0-2.181l18.95-7.81a3.1 3.1 0 0 1 2.349-.006l19.242 7.814zM22.901 20.228l10.457-4.247v6.908c0 .482-.217.934-.614 1.203-1.587 1.072-6.109 3.733-11.889 3.733S10.76 25.162 9.259 24.09c-.376-.268-.578-.707-.578-1.171v-6.869l10.109 4.167c1.316.542 2.791.546 4.111.011z" fill="#007fa3"/><circle cx="34.5" cy="18.5" r="18.5" fill="#6fc7ea" style="mix-blend-mode:multiply"/></svg>