<svg xmlns="http://www.w3.org/2000/svg" xml:space="preserve" width="1000" height="208" fill="#1E3765" style="shape-rendering:geometricPrecision;text-rendering:geometricPrecision;image-rendering:optimizeQuality;fill-rule:evenodd;clip-rule:evenodd"><path d="M124.944 141.293c1.867.103 3.472.208 4.929.208 6.311 0 6.311-.554 6.423-3.008h1.419c.038.864.112 1.971.112 3.492 0 1.763-.112 3.458-.148 4.667h-1.383c-.112-2.696-.112-2.938-3.061-3.318-2.391-.278-4.482-.381-8.216-.278l-.112 6.363v2.178c0 3.354 0 4.252 5.227 4.668v1.175c-2.353-.103-4.705-.103-7.132-.103-1.829 0-4.854 0-6.982.103v-1.14c1.232-.242 2.538-.554 2.949-1.764.71-2.109.71-9.231.71-11.895 0-2.35 0-11.029-.747-12.412-.561-1.073-2.241-1.246-3.398-1.28v-1.14c.97-.035 3.884.034 6.758.138 2.951.034 5.901.103 6.984.103 7.581 0 8.775-.034 11.053-.345-.261 1.59-.373 2.696-.411 6.12h-1.307c-.186-1.522-.299-2.49-.97-2.94-1.719-1.175-6.274-1.313-8.403-1.313-1.493 0-2.427.035-4.07.173-.149 1.279-.149 3.63-.149 5.048l-.112 6.431.037.069zm471.802-12.679.323.324c-.404 1.24-.701 2.244-.89 3.012a46.812 46.812 0 0 0-.606 3.013h-.931l.041-.404c0-.944-.081-1.605-.243-1.982-.162-.378-.539-.809-1.131-1.293-.971-.728-2.09-1.308-3.357-1.739a11.71 11.71 0 0 0-3.801-.648c-3.099 0-5.714 1.281-7.844 3.842-2.13 2.56-3.194 5.742-3.194 9.542 0 3.666 1.159 6.806 3.477 9.422 2.318 2.614 5.122 3.922 8.411 3.922.997 0 2.028-.162 3.093-.485 1.065-.324 1.948-.742 2.649-1.254.701-.512 1.26-1.025 1.678-1.536.417-.512.923-1.335 1.516-2.467l1.011.04-1.942 6.228-1.778.323c-2.076.351-3.498.58-4.266.687-.769.108-1.57.162-2.406.162-4.745 0-8.707-1.428-11.888-4.287-3.18-2.857-4.771-6.401-4.771-10.633 0-4.286 1.55-7.898 4.65-10.837 3.1-2.938 6.9-4.408 11.402-4.408.971 0 2.076.108 3.315.324 1.241.216 2.454.499 3.64.849l1.415.445.971.162 1.011-.162.445-.162zm-49.375 28.304v-.767c1.079 0 1.772-.035 2.082-.102.31-.067.748-.249 1.314-.545.728-.405 1.187-1.416 1.375-3.026.189-1.604.284-5.439.284-11.497 0-4.731-.027-7.575-.081-8.532-.054-.964-.257-1.779-.607-2.453-.189-.378-.539-.721-1.052-1.018a4.843 4.843 0 0 0-1.071-.424c-.364-.094-1.017-.196-1.961-.304v-.809c1.455 0 2.79.035 4.003.095 1.213.067 2.331.115 3.356.148.512 0 1.583-.04 3.215-.121 1.63-.081 2.783-.122 3.456-.122v.809c-.808 0-1.414.054-1.819.162-.404.108-.836.31-1.294.607-.674.485-1.118 1.435-1.334 2.851-.215 1.415-.323 4.238-.323 8.47v11.322c0 1.536.215 2.601.653 3.194.432.594 1.294.958 2.568 1.092l1.267.203v.888l-7.48-.121h-6.551zm-28.793-7.763h.849l.404.849c.459 1.025.809 1.732 1.052 2.123.243.391.58.748 1.011 1.071.808.647 1.961 1.214 3.456 1.699 1.497.485 2.865.728 4.105.728 1.779 0 3.208-.445 4.286-1.335 1.079-.89 1.618-2.088 1.618-3.598 0-2.156-1.402-3.841-4.206-5.055l-3.073-1.374c-1.429-.647-2.588-1.227-3.477-1.739a16.13 16.13 0 0 1-2.346-1.618c-1.59-1.374-2.385-3.153-2.385-5.336 0-2.373.93-4.368 2.789-5.985 1.861-1.618 4.166-2.427 6.915-2.427 1.482 0 3.087.216 4.812.647.971.27 1.536.405 1.698.405.62 0 1.119-.243 1.496-.728l.971.202c-.243 1.672-.364 2.926-.364 3.76 0 .701.081 1.807.243 3.317h-.85c-.242-.863-.452-1.51-.626-1.942-.175-.431-.466-.876-.87-1.334-1.401-1.725-3.396-2.588-5.984-2.588-1.779 0-3.249.486-4.407 1.456-1.16.971-1.739 2.183-1.739 3.639 0 .809.215 1.536.647 2.183.161.324.391.634.687.931.297.296.646.579 1.052.849.619.431 1.199.775 1.738 1.031.539.256 1.712.762 3.518 1.516 1.509.674 2.662 1.24 3.457 1.698.795.459 1.489.971 2.082 1.536.701.674 1.254 1.51 1.659 2.508.403.998.606 2.009.606 3.032 0 2.454-.93 4.435-2.783 5.944-1.861 1.51-4.32 2.264-7.387 2.264-1.772 0-3.834-.31-6.172-.929-.567-.162-1.038-.243-1.416-.243-.478 0-.761.284-.842.849h-.93c0-1.833-.155-3.423-.459-4.772a53.718 53.718 0 0 1-.835-3.234zm-41.651-20.824v-.89c1.347 0 2.581.035 3.699.095 1.119.067 2.15.115 3.094.148l5.904-.243v.817c-1.073.107-1.921.31-2.555.606-.627.296-1.084.654-1.375 1.058a3.537 3.537 0 0 0-.579 1.28c-.095.452-.141 1.267-.141 2.46v12.326c0 1.893.134 3.356.404 4.367a6.383 6.383 0 0 0 1.543 2.749c1.456 1.679 3.889 2.521 7.292 2.521 2.567 0 4.744-.479 6.543-1.443 1.793-.963 2.979-2.277 3.545-3.955.162-.492.317-1.119.465-1.893.149-.769.222-1.524.222-2.252 0-1.273.062-2.897.183-4.872.121-1.974.181-3.141.181-3.492 0-2.034-.081-3.827-.242-5.384-.162-1.556-.438-2.574-.829-3.046-.391-.471-1.179-.774-2.365-.909l-.971-.081v-.857c.782 0 1.584.027 2.406.089.822.06 1.691.114 2.608.154l4.569-.243v.817c-.674.08-1.125.154-1.354.221a2.36 2.36 0 0 0-.707.364c-.243.176-.446.486-.607.937-.163.445-.243 1.105-.243 1.968l-.283 4.475-.202 4.475c0 2.52-.121 4.596-.364 6.24-.243 1.637-.566 3.053-.971 4.245-.701 1.921-2.15 3.458-4.347 4.596-2.196 1.139-4.832 1.705-7.904 1.705a21.2 21.2 0 0 1-4.933-.566c-1.86-.457-3.471-1.166-4.832-2.109-1.362-.943-2.278-1.981-2.75-3.1-.472-1.125-.707-2.843-.707-5.169l.121-6.044-.121-4.051v-2.716l-.162-2.271c0-1.193-.202-1.975-.607-2.351-.404-.379-1.281-.641-2.628-.776zm-47.797 28.708v-.767c2.075-.466 3.443-1.227 4.103-2.298.661-1.071.991-3.242.991-6.517l.566-9.502c0-.458.027-1.079.081-1.861.054-.78.081-1.347.081-1.697 0-2.211-.405-3.774-1.212-4.691-.809-.916-2.238-1.375-4.288-1.375v-.809c1.106 0 2.043.014 2.811.041.768.027 1.502.054 2.204.081.835 0 1.651-.014 2.446-.041l2.325-.081a165.073 165.073 0 0 0 2.406 5.446 255.444 255.444 0 0 0 2.851 5.856 362.059 362.059 0 0 0 2.87 5.715c.782 1.51 1.672 3.221 2.669 5.142a172.646 172.646 0 0 0 3.114-5.431c.485-.89 1.375-2.521 2.668-4.9a304.409 304.409 0 0 0 3.053-5.829c.822-1.624 1.786-3.62 2.891-5.999.755 0 1.564.021 2.427.061.862.041 1.428.061 1.697.061h3.599v.687c-.593 0-1.011.034-1.253.102-.243.067-.633.216-1.173.445-.539.229-.943.626-1.213 1.192-.27.567-.472 1.368-.607 2.393-.134 1.023-.202 2.385-.202 4.09v11.457c0 3.106.243 5.142.728 6.112.459 1.031 1.591 1.746 3.396 2.15v.767h-13.384v-.767c.728-.135 1.227-.25 1.497-.344.27-.095.599-.263.99-.505.391-.243.789-.634 1.193-1.173.431-.647.728-1.462.89-2.447.161-.984.242-2.513.242-4.588V134.68c-2.19 3.591-4.043 6.873-5.559 9.846a113.575 113.575 0 0 0-2.925 5.91 237.235 237.235 0 0 0-2.682 6.2c-.108.242-.229.377-.364.403h-1.018c-.269 0-.445-.133-.526-.403-1.003-2.595-1.826-4.644-2.473-6.16a102.895 102.895 0 0 0-2.56-5.465 361.762 361.762 0 0 0-2.191-4.178 565.838 565.838 0 0 0-3.369-5.951l-.539 6.995-.337 6.813v2.102c0 1.221.04 2.069.121 2.555.081.492.283.95.607 1.382.62.808 1.805 1.341 3.558 1.583v.727l-5.54-.161-5.66.161zM78.605 32.922s.15-.311.15-.52c0-.346-.15-.76-.56-1.175-1.12-1.072-2.95 0-3.846.484a1.666 1.666 0 0 0-.485-.795c.074-.138.112-.312.074-.485-.074-.656-.784-.933-1.158-1.071h-.074c.821.035 2.128.035 2.502-1.072v-.622l.895.069c1.234.242 3.063.622 3.698-.589.074-.172.112-.345.112-.483 0-.415-.261-.795-.448-1.072 0 0-.038-.069-.112-.139.522-.242 1.941-.933 1.941-2.247 0-.311-.074-.657-.298-1.072-.635-1.348-2.128-.934-2.912-.726 0 0-.15 0-.263.069v-.518c0-.311-.074-.657-.336-.934-.186-.208-.448-.346-.783-.484.335-.38.597-.795.597-1.349 0-.276-.075-.553-.187-.829a1.768 1.768 0 0 0-.933-.9c-.934-.345-2.129.105-2.838.416a3.354 3.354 0 0 0-.187-.381c.075-.173.111-.38.111-.553 0-.415-.111-.76-.223-1.037.485-.312 1.27-.899 1.419-1.625v-.277c0-.346-.149-.657-.411-.968-1.008-1.141-2.54-.657-3.249-.449h-.112c-.224-.38-.523-.831-1.344-1.003-.934-.208-1.904.552-2.614 1.141 0 0-.187.138-.299.242l-.112-.104-1.046-.622c-.971-.174-2.016 1.244-2.241 1.624h-.036a1.415 1.415 0 0 0-.56-.553l.112-.103c.522-.415 1.306-1.073 1.344-1.937 0-.483-.225-.934-.635-1.314-.56-.518-1.121-.76-1.756-.76-1.119 0-1.941.864-2.501 1.418l-.075.069-.224-.519c.075-.173.075-.346.075-.553 0-.208-.038-.45-.113-.657-.074-.138-.186-.242-.297-.347.634-.449 1.418-1.209 1.418-2.005a1.17 1.17 0 0 0-.187-.656c-.522-.935-1.231-1.073-1.68-1.176v-.035c0-.207.037-.484.037-.76 0-.762-.223-1.66-1.381-1.936-1.419-.311-2.353.829-2.838 1.452l-.15.138c-.298-.276-.822-.727-1.643-.623-.373-.553-.934-.864-1.643-.967-1.345-.173-1.867 1.348-2.203 2.316 0 0-.149.345-.187.484-.074 0-.187-.035-.187-.035-.373-.104-.933-.242-1.531.069-.559.278-.746.727-.746 1.211 0 .796.522 1.694.896 2.351 0 0 .074.138.149.312-.597.103-1.12.311-1.419.691-.15.207-.224.414-.299.622-.075-.069-.149-.173-.223-.242.186-.864.597-3.527-.075-4.287-.187-.242-.486-.346-.785-.346-.111 0-.224.069-.336.104 0-1.003-.223-2.352-1.344-2.698-.859-.241-1.307 0-1.568.242-.673-.794-1.942-2.212-3.399-1.59-.672.277-.896.83-.896 1.383 0 .727.336 1.522.561 2.005 0 0 0 .069.036.104-.485.035-1.306.208-1.531 1.072-.037.139-.074.242-.074.381v.103c-.821-.553-1.904-.898-3.138-.138-.597.38-.82.934-.82 1.487 0 .898.522 1.832.82 2.316-.485.208-1.156.554-1.268 1.383v.277c0 1.591 1.867 2.075 2.874 2.351 0 0 .076 0 .187.07-.111.138-.634.415-.859.415l-.373-.242c-.859-.519-2.651-1.591-4.182-.069-.336.345-.485.725-.485 1.071 0 .761.671 1.487 1.045 1.867 0 0 .299.346.336.38-.037 0-.187.312-.187.312l-.336 1.037v.276s-.149.069-.261.139c0-.208-.038-.484-.038-.484-.074-.933-.149-2.178-1.232-2.489-.672-.208-1.12.207-1.381.484v-.07c-.15-1.003-.449-2.662-1.793-2.662-.747 0-1.121.657-1.382 1.141 0 0-.037.069-.111.138-.038-.069-.113-.104-.113-.104-.411-.483-1.195-1.383-2.278-.933-.933.346-1.158 1.141-1.158 1.868 0 .483.113.933.187 1.278 0 0 0 .138.038.243-.075 0-.149.069-.149.069-.448.207-1.047.449-1.27 1.037-.074.138-.074.311-.074.449 0 1.038 1.344 1.798 2.351 2.283a5.22 5.22 0 0 0-.671.518c-.598-.311-1.345-.414-2.018-.207-.784.276-.932.898-.932 1.418v.207c-.673-.173-1.793-.311-2.428.933a2.34 2.34 0 0 0-.261 1.038c0 .345.112.622.224.864.448.795 1.456 1.21 2.165 1.418-.149.207-.335.414-.373.692l.373 1.106c.71.795 1.756.38 2.54.103.859-.311 1.195-.38 1.419-.138 0 .104-.224.415-.523.727-.186-.035-.373-.069-.56 0-.747.103-1.045.587-1.158.967-.635-.518-1.718-1.348-2.837-1.105-.897.172-1.084.794-1.084 1.313 0 .242.038.485.075.623h-.149c-.635-.138-1.531-.312-2.241.103a1.576 1.576 0 0 0-.709 1.106v.381c0 1.383 1.568 1.833 2.389 2.04-.186.242-.448.588-.448 1.002 0 .311.113.623.523.934 1.308 1.106 2.614.277 3.249-.103h.075l.112.518s0 .208.037.311a3.934 3.934 0 0 1-.262.069c-.522.139-1.27.346-1.605.934-.113.173-.149.381-.149.622 0 .208.036.415.112.622.523 1.349 2.016 1.28 2.726 1.246h.224v.103c.037.38.111.933.634 1.383 1.308 1.106 3.137-.276 3.884-.864.15.103.298.207.449.276.112.312.298.554.448.692l-.15.138c-.485.415-1.419 1.245-1.419 2.247 0 .346.112.727.411 1.073.672.898 2.129.242 3.323-.277 0 0 .711-.277.785-.312v.14c.111.414.373 1.313 1.829 1.036 1.718-.311 2.203-1.521 2.54-2.42.111-.276.223-.485.336-.657.149.138.635.657.635.657l.746-.103c1.009-.554 1.718-2.698 1.943-3.458 2.053.898 4.032 3.665 4.331 4.391.187.449.971 1.625 2.129 3.319.671 1.003 1.493 2.178 1.642 2.525-.447 2.731-1.829 4.805-3.883 5.774l-.859.415c-1.904.899-4.78 2.212-6.162 3.284h-.448c-1.157 0-1.792.311-2.166.519-.746-.346-1.605-.553-2.352-.553-2.092 0-3.062.934-3.511 1.694-.671 1.211-.484 2.766.075 3.527.784 1.037 1.943 1.556 3.473 1.556 1.083 0 1.68-.277 2.054-.484.411.207 1.083.45 2.092.45 1.157 0 1.867-.278 2.24-.485.597.311 1.269.519 1.942.519.971 0 1.568-.277 1.905-.484.372.207 1.007.45 1.942.45 1.045 0 1.716-.243 2.053-.45.597.31 1.269.519 1.979.519.972 0 1.569-.278 1.904-.485.374.207 1.046.45 1.942.45 1.046 0 1.681-.243 2.054-.45.597.311 1.27.519 1.942.519.972 0 1.569-.277 1.904-.485.374.208 1.046.451 1.942.451 1.046 0 1.68-.243 2.054-.451.597.313 1.27.52 1.979.52.971 0 1.568-.278 1.905-.485.374.207 1.046.45 1.942.45 1.194 0 1.867-.312 2.203-.519.784.381 1.643.589 2.39.589 1.681 0 2.913-.623 3.548-1.764.672-1.211.447-2.766-.15-3.492-.859-1.038-1.942-1.522-3.435-1.522-1.083 0-1.68.277-2.054.484a4.73 4.73 0 0 0-1.531-.415c-.635-1.141-1.568-1.556-4.892-2.835l-.448-.173c-3.511-1.382-4.333-2.697-4.967-3.734l-.074-.139c-.598-.933-1.793-6.708.708-10.234 1.42-2.006 3.175-2.904 4.183-3.286.186 1.004.486 2.318 1.008 2.871l.859.415s.262-.139.486-.243c.074.139.149.312.149.312.449 1.003 1.008 2.317 2.166 2.455.934.104 1.344-.242 1.569-.554.485.485 1.232 1.142 2.091 1.107.858 0 1.27-.518 1.493-.76.523.172 1.867.587 2.652-.519.224-.312.298-.588.298-.83 0-.658-.597-1.107-.933-1.349h-.074c.185-.173.485-.449.485-.864.335 0 .671-.069.97-.243.523-.31.598-.76.635-1.036h.075c.523.069 1.606.172 2.054-.762.112-.207.15-.414.15-.621.485-.208.709-.554.821-.864.709.31 1.68.691 2.427.38.784-.346.86-1.142.934-1.625.597.103 1.606.311 2.352-.208.412-.276.673-.691.747-1.28v-.345c0-1.694-2.128-2.074-2.988-2.178l.336-.207zm-5.003-1.66c-.075.207-.224.345-.448.345.149-.103.298-.207.448-.345zm-.784-.692-.337.277-.484.38-.187.415c-.187.622-.635 1.832-3.1 2.247-.037-.069-.112-.138-.15-.207-.335-.519-.746-1.106-.858-1.902-.149-1.141 0-2.005.149-2.524 1.979-.207 3.362.035 3.884.691.037.07.56.346.56.346.15.035.485.173.523.277zm-11.465.069.336.726.15.208c-.747.483-1.83.207-2.576 0l-.971-.069c-.412.172-.486.552-.524.795l-.074.242c-.373.07-2.278-.346-2.913-.657.411-.553.859-1.002 1.307-1.245a20.564 20.564 0 0 1 1.792-.726c1.308-.415 3.063-1.141 2.951-1.418-.113-.276-1.942.069-3.286.45-1.083.311-2.651.899-3.399 1.141.411-1.176 1.12-2.558 1.681-2.628.224.381.56.45.672.415l.971-.658c1.307-1.175 1.793-1.313 1.942-1.243l.149.172.522.484c.374.173.711-.069 1.158-.345.261-.139.86-.519 1.046-.45.262.104.298.207.374.38l.447.553h1.083c.448-.103 1.457-.311 1.606 0 .299.692 0 .934-.821 1.315-.411.172-.785.38-.785.794l.187.658.075.414c-.075.208-.262.311-.485.346-.113 0-.187 0-.262.035-.299 0-.673 0-1.121-.07l-1.007.07s-.225-.07-.299.069c-.112.138 0 .138.074.312v-.07zm-7.281 6.397a16.136 16.136 0 0 0-1.345 1.487v-.449c.075-1.142.113-2.387.523-3.424.299-.726.635-1.348.971-1.901.373.207.822.345 1.344.484 0 .311-.149.38-.485.518l-.971.657c-.71.83-.523 1.937-.075 2.628h.038zm-2.316-8.644c.075-.484.224-.968.411-1.522.299-.864 2.203-3.942 1.718-4.08-.448-.173-2.277 2.836-2.614 3.804-.112.31-.187.587-.298.864-.412-.761-.786-1.694-.786-2.386 0-.311.076-.587.263-.76.149-.173.261-.173.41-.173l.411-.069c.224-.104.299-.242.299-.451 0-.207-.113-.414-.187-.622-.224-.449-.561-1.279-.561-1.936 0-.207 0-.414.113-.553.112-.241.336-.415.709-.554l.187.104c.374.243.672.243.933 0l.225-.622c.074-.484.299-1.936.97-1.936l.3.103s.41.208.709.07l.261-.208c1.12-.898 1.419-.829 1.457-.829.186.104.224.691.261 1.002.037.484.075.831.411 1.038l.784.173h.373c.411.933-.373 1.659-1.194 2.281-.224.139-.486.346-.374.692l.449.45.336.207c.111.449-1.307 1.175-1.793 1.418l-.784.622s-.225.069-.187.242c0 .173.112.104.261.173l.635.311h.224c.261 1.107-2.913 2.628-4.332 3.147zm1.868.311a9.931 9.931 0 0 0-.672 1.936c-.225.104-.486.208-.673.312 0 0-.149.069-.336.138v-.069c-.037-.658-.075-1.176-.187-1.556.411-.138 1.084-.38 1.868-.727v-.034zm-3.025-.484.112-.104h.075c0 .069-.038.138-.075.242-.038 0-.075-.069-.112-.104v-.034zm.597 1.383s0 .104-.037.104c0 0 0-.069.037-.104zm-1.083-1.556c-.261 0-.523 0-.71.069-.112-.76-.484-2.282-1.232-2.87-.709-.553-1.568 0-2.054.277-.448-.865-1.381-2.11-2.427-2.317-.037-.069-.111-.104-.149-.138-.41-.346-.859-.726-.784-1.384.037-.311.41-.449.747-.553.559-.241.523-.622.485-1.176-.112-1.209 0-1.97.672-2.108.896-.208 1.643.657 2.353 1.521l.784.691c.486.139.822-.242 1.046-.484.336-.345.411-.38.485-.345.448.207.635.725.673.968a2.433 2.433 0 0 0-.187.899c0 .795.336 1.591.559 2.143a1.52 1.52 0 0 0-.709.45c-.374.381-.523.865-.523 1.417 0 1.038.561 2.249.971 3.009v-.069zm-1.419 6.19c.187.795.261 1.589.261 2.247v.657c0 .587-.41 2.039-.709 3.008-.075-.138-1.755-2.697-1.755-2.697-.858-1.314-1.045-2.524-1.12-3.424h.037c1.382.52 1.979.416 3.025.243h.261v-.034zm.635-2.214a4.458 4.458 0 0 1-.709-.691 8.626 8.626 0 0 0-1.345-1.211c-1.232-.864-2.912-1.728-3.062-1.452-.15.277 1.307 1.21 2.39 2.075.71.588 1.195 1.313 1.494 1.868 0 .069.038.103.074.172.075.173.15.346.224.484h-.149c-1.008.173-1.344.242-2.428-.173l-.447-.242.037-.726c0-.139.074-.208-.037-.311-.112-.104-.15-.035-.337 0l-1.007.207c-.523.207-1.419.554-1.905.345-.075 0-.261-.103-.374-.449-.299-.76 0-1.002.225-1.209.149-.139.41-.381.336-.727-.075-.449-.561-.518-1.121-.622-1.008-.173-1.606-.345-1.606-.796 0-.276.449-.691.711-.898.111-.069.185-.208.223-.346 0-.139 0-.277-.074-.381-.038-.035-.897-1.175-.075-1.729.784-.553 1.269-.138 1.381 0 .15.173.374.207.597.138.225-.069.374-.242.374-.483 0 0 0-.691.523-.795.448-.104 1.643 1.175 1.979 2.143.038.139.225.311.374.346.336.104.635-.069.971-.276.149-.104.672-.415.784-.381.486.346.896 1.971.896 2.455 0 .138.149.415.261.518.299.209.673.174 1.009.105h.486s-.15 1.037-.673 2.904v.138zm-8.664.104v.381c-.074.622-1.083 1.382-1.53 1.658-.225-.207-.448-.311-.673-.414-.074-.277-.448-1.313-.635-2.558-.41-2.283-.522-3.112-.822-3.009-.297.104-.484.831-.185 3.009.074.518.149.967.26 1.383-.075-.069-.149-.138-.26-.209l-.822-.103s-.075.069-.15.103c-.186-1.002-.672-1.901-1.194-2.385 0-.069 0-.138-.038-.207-.075-.138-.075-.484 0-.588.074 0 .709-.795.709-.795.075-.346-.186-.588-.485-.864-.522-.451-.934-.9-.784-1.384 0-.069.075-.104.336-.207l.485-.242c.262-.208.225-.519.225-.899-.075-.899 0-1.799.858-2.144h.261c.449.173.971 1.072 1.196 1.66 0 .069.075.173.149.207.299.242.635.104.86 0 .484-.207.858-.276 1.232 0-.486.38-.711.864-.711 1.349 0 .484.188.898.412 1.278-.336.312-.822.796-.822 1.418 0 1.314 1.531 1.626 2.39 1.764-.187.242-.373.554-.373 1.003 0 .207.037.449.149.725l-.038.07zm-.597 3.526h.112c1.083.277 3.324.9 4.07 4.807.336 1.729.411 2.869.411 3.631 0 .483-.037.794-.075 1.002-1.082-.761-4.07-3.25-4.07-6.362v-.518c0-1.107-.187-1.902-.448-2.594v.034zm-6.61-6.015c-.223.069-.372.31-.56.483-.373-.76-.971-1.383-1.904-1.556-.673-.138-.971.416-1.196.796-.559-.345-1.418-.83-2.277-.657-.187 0-.336.103-.486.207-.82-.311-1.531-.311-2.09-.173a.814.814 0 0 0-.075-.345l-.56-.588c-.561-.346-1.009-.658-.859-1.21.111-.415.485-.588 1.007-.692 0 0 .3 0 .449-.103l.934-.382.186-.449c.075-.345.15-.483.299-.518a4.165 4.165 0 0 0 1.531 1.556c.112.726.56 1.28 1.27 1.591 1.232.484 3.062.172 4.07-.242.261.414.597.726.859.967l-.373.346c-.15.173-.225.485-.225.83v.208-.069zm-10.754 2.696-.187-.553s-.075-.173-.075-.207c-.149-.277-.261-.519-.074-.795.187-.277.485-.277.859-.277h.41l.373-.277c.412-.311 1.158-.864 2.353-.553-.112.242-.186.484-.186.726 0 .588.335 1.038.671 1.383l-2.016 3.112c-.448-.207-1.27-.727-1.643-1.383l-.485-1.176zm6.459-7.537c-.41.38-.597.38-.633.38h-.038c-1.232-.622-1.68-1.937-1.68-2.973l-.15-.693s-.037-.138-.037-.172c0 .069.261 0 .261 0h.486l.447-.104a6.312 6.312 0 0 1 3.362.138c-.075.623-1.009 2.456-2.018 3.389v.035zm9.038-1.142s.074.209.149.347c0-.035-.075-.173-.149-.347zm-1.307-8.816s-.112-.623 0-.727c.224-.069.635.242.821.415.076.069.076.104.15.138l.597.139c.597 0 1.831.104 2.764 1.764-.672.207-1.606.518-2.502 1.002-.748.38-1.345.76-1.793 1.072-.896-1.556-.41-2.421-.149-2.835l.187-.38v-.588h-.075zm.075 5.359v-.034.034zm14.787-6.673.336-.173c.225-.138.598-.346.822-.276.299.069.336.242.411.518l.074.276c.225.415.673 1.315.486 2.662 0 0 0-.034-.075-.034-.411-.208-2.763-.899-4.519-1.003.524-1.21 1.83-1.763 2.428-1.97h.037zm-3.062.898-.074-.103s.074.069.112.069l-.038.034zm10.68 4.254c.448-.277 1.046-.727 1.27-1.314.074-.173.074-.311.074-.484a1.29 1.29 0 0 0-.261-.796c.261-.138.523-.242.747-.38.298.207.598.76.71.969.074.138.56.483.56.483.411.104.859-.103 1.307-.38.784-.45 1.419-.726 1.941-.312.486.347.523.623.523.796-.784.415-1.307 1.28-1.531 1.66-1.046-.104-2.016.069-2.949.553-.486-.138-1.98.276-2.764 1.487-.224.311-.337.725-.448 1.175-.075-.103-.299-.277-.486-.484.896-.726 1.419-1.486 1.419-2.248 0-.276-.074-.518-.187-.794l.075.069zm7.132 1.591-.149.449v.76c0 .657-.186 1.66-1.232 2.456-.97-.347-1.83-.796-2.389-1.522l-.412-.83c-.112-.346-.149-.691-.149-1.141 1.457-.83 2.726-.485 3.174-.381.074 0 .074.069.187.035l.747-.139.373-.103c-.075 0-.186.381-.186.381l.036.035zm-5.339-.174v-.139.139zm-1.158 1.452c.224-.346.486-.553.785-.691l-.785.726v-.035zm.299 3.112-.187-.172c-.261-.346-.336-.761-.411-1.177l.598 1.384v-.035zm-3.249.484c-.075-.276-.224-.38-.373-.518.672-.346 1.568-.864 1.904-1.522.038.658.225 1.314.635 1.902-.858.103-1.755.899-2.464 1.521l-.075.07c0-.035.075-.07.111-.104.262-.346.374-.691.374-1.038v-.311h-.112zm8.141 3.7s.074.139.074.174l-.074-.174zm.074.208v-.069c.075 0 .149-.07.149-.07l-.111.243v-.104h-.038zm11.353-7.78.075.83c.261.622 1.045.415 1.605.277.971-.277 1.381-.277 1.606.172.485 1.003 0 1.453-1.158 2.006l-.635.483c-.186.415.075.831.3 1.142.111.173.335.449.261.553-.299.518-1.606.242-2.502.069-.822-.173-1.382-.277-1.756 0-.447.345-.41.727-.41 1.003v.277c-.149.38-.71.414-1.643.311-.411-.035-.822-.07-1.046.207-.859-.346-2.016-.45-3.51-.311-.038-.069-.074-.139-.15-.207-.187-.139-.523-.277-.896-.346.075-.173.112-.346.112-.52v-.241c1.419.069 4.407.172 5.153-1.452.076-.174.112-.312.112-.485 0-.345-.148-.656-.335-.933 1.493 0 3.808-.069 3.921-1.487v-.207c0-.865-.523-1.28-.971-1.487.149-.104.298-.173.41-.242.149-.069.262-.173.412-.276.671.069.895.207.97.276.112.104.112.311.075.622v-.034zm-3.063-3.423c.449-.208 1.568-.657 2.129-.45.112.035.225.104.336.346.299.692-.075 1.141-.784 1.659-.075 0-.149.07-.224.139-.15.104-.299.173-.448.276-.56.347-1.046.658-1.195 1.073-.075.207-.187.276 0 .414l.522.346c.449.138.785.277.748.865 0 .207-.449.587-3.174.553-.673 0-.971 0-1.121.345-.111.312.038.52.261.762.149.207.523.691.412.898-.448 1.038-3.324.9-4.258.83h-.373a1.768 1.768 0 0 0-.71-.276c.15-.347.262-.658.224-.969.411-.345.71-.691.934-1.038 0 0 .485-.276.821-.483 1.606-.899 3.25-2.593 2.95-2.731-.261-.138-2.165 1.105-3.211 1.728.074-.519.074-.934 0-1.175 0-.104.074-.311.074-.311.15-.346.412-1.003-.111-1.487-.448-.45-1.046-.242-1.419-.104.298-.415.672-.83 1.008-.934.373-.104.635.069.971.312l.71.38c.521.138.858-.276 1.269-.727.635-.725 1.195-1.278 1.941-1.175.187.035.299.208.412.519.074.207.187.553.597.622l.672-.173.037-.034zm-2.986-6.189h-.113c.075 0 .113-.035.113 0zm-4.258.345-.075.069.075-.069zM63.146 13.8h.299l.485-.449c.15-.242.896-1.072 1.157-1.141 0 .034.449.345.449.345l.821.485 1.084-.589c.41-.345 1.232-1.002 1.642-.932.448.103.561.311.673.552l.523.519.858-.104c.785-.242 1.569-.449 2.054.138.15.173.15.311.15.416-.112.484-.934 1.002-1.308 1.209-.111.07-.223.173-.261.311-.037.139 0 .278 0 .382.15.276.299.622.299.933-1.419-.208-2.39.865-2.95 1.521 0 0-.187.207-.299.311a.568.568 0 0 0-.186-.104c-.299-.207-.71-.518-1.308-.552 0-.311-.223-.727-.635-1.107.225-.138.486-.311.784-.484.934-.518 1.98-1.176 1.831-1.349-.151-.207-1.382.242-2.39.622-.486.209-.897.485-1.158.658-.934-.276-1.905.207-2.502.553 0 0-.261.138-.448.207a4.574 4.574 0 0 0-.709-1.002c.597-.45.97-.9 1.007-1.349h.038zm-.971-1.314s.075-.035.112-.104l-.112.069v.035zm-3.398-1.556 1.008-.622c.448-.449 1.083-1.107 1.717-1.107.3 0 .635.138.935.45.224.208.299.381.299.553 0 .415-.599.899-.971 1.211l-.635.864c0 .415.336.622.559.761.261.173.412.277.374.622 0 .242-.298.587-1.008 1.002-.075 0-.15.069-.187.104-.336.208-.747.381-1.27.588-.149.07-.373.242-.41.415-.075.277.075.484.224.622.186.208.261.347.186.589-.149.414-.747.76-1.045.898-.15 0-.337-.034-.486-.069h-.149v-.242c-.038-.622-.112-1.452-.821-1.798-.336-.173-.672-.138-1.009-.034.225-.277.486-.553.747-.864.859-.865 1.793-1.729 1.606-1.938-.261-.276-1.457.45-2.428 1.349-.41.38-.747.761-1.008 1.072a4.614 4.614 0 0 0-.56-1.936c0-.069-.075-.173-.075-.173a1.937 1.937 0 0 0-.373-.761c.336-.311.635-.276.933-.207l.336.069c.449 0 .598-.346.785-.864.224-.588.635-1.694 1.345-1.936h.298s.224.311.299.484c.149.345.299.829.858.829l-.074.069zm-5.975-7.537.635.38c.486.103.747-.277 1.083-.657.56-.656 1.045-1.211 1.717-1.072.598.138.635.657.524 1.59-.038.38-.075.693.186.9l.56.173c.336.069.747.103 1.083.691.261.485-.858 1.418-1.531 1.798-.187.103-.298.345-.224.554a.6.6 0 0 0 .486.38c.149 0 .186.069.224.104.074.103.074.276.074.414h-.672c-1.157.415-1.681 1.729-1.979 2.524 0 0 0 .07-.074.139-.3-.069-.71-.103-1.158.104.261-.554.523-1.176.523-1.694 0-.173 0-.313-.075-.416-.225-.518-.673-.691-1.083-.761.448-.552 1.008-1.314 1.008-2.316 0-.519-.15-1.037-.56-1.591-.336-.483-.859-.483-1.27-.38 0-.173.075-.277.075-.45 0-.242 0-.518-.075-.795.149.07.299.173.485.346l.038.035zm-.561 1.417v.035a.928.928 0 0 1-.074.311c0-.069 0-.242.074-.346zm-6.31 4.253c.224-.311.784-.38 1.195-.415.187 0 .41-.138.523-.276.224-.346 0-.726-.374-1.383-.41-.726-1.083-1.937-.56-2.213.187-.104.373-.069.709 0h1.046c.298-.173.411-.553.635-1.142.224-.587.598-1.694 1.046-1.625.373.035.671.207.858.52.448.656.337 1.798.15 2.212a.624.624 0 0 0 .15.622c.299.242.634.069.858 0 .112-.069.411-.207.523-.207.821 1.141.112 2.247-.71 3.147-.261.276-.485.518-.298.829.186.347.559.347.821.347.411 0 .635 0 .672.172.075.277-.373 1.417-1.083 2.455a3.416 3.416 0 0 0-.635.311c-.522.207-1.344.553-2.054 1.141.187-.692.599-2.281.748-3.596.149-1.348.187-2.421-.225-2.386-.186 0-.372 1.279-.709 2.628-.336 1.349-.747 2.731-.859 3.147h-.336s-.299 0-.486-.034c.225-.416.635-1.211.635-2.04 0-.692-.261-1.384-1.157-1.938-.486-.276-.897-.207-1.232 0 0-.103.074-.207.112-.276h.037zm-1.494 1.279.672.588c.373.069.635-.173.859-.415l.411-.345c.971.622.784 1.487.149 2.731l-.224.727c.149.725 1.046.725 1.681.76h.635c-.225.345-.374.727-.523 1.141-.448.104-.822.277-1.083.588-.374.414-.486.934-.486 1.418-.411-.346-.895-.623-1.456-.726a19.246 19.246 0 0 1-.411-1.349c-.298-1.211-.634-2.663-1.008-2.594-.225.069-.187 1.418 0 2.628.075.519.187.968.298 1.349-.336.104-.597.242-.784.449-.112-.276-.261-.552-.448-.725a1.102 1.102 0 0 0-.597-.312 4.991 4.991 0 0 0-.523-.864c.262-.207.299-.38.336-.449.038-.278-.112-.416-.448-.831-.859-.933-1.232-1.521-1.12-1.763.111-.242.187-.242.523-.207.261.034.597.069.896-.173.261-.242.224-.553.149-1.107-.074-.864-.149-1.798.41-1.936.748-.173 1.57.796 1.98 1.348l.112.069zm-3.473 1.073v.138-.138zm-4.22-7.366.076.139c0-.104-.076-.139-.076-.139zm-.559 1.107c.074-.242.186-.311.746-.346.299 0 .635-.034.86-.311.223-.276.074-.553-.151-1.106-.261-.657-.784-1.868-.223-2.109.746-.311 1.792.898 2.203 1.417l.56.484s.523.104.822-.38c.111-.173.149-.276.634-.138.524.173.673 1.59.561 2.558 0 .207.112.415.335.518.225.105.486 0 .635-.138.149-.173.412-.345.486-.345.187.311.075 1.867-.074 2.974-.412-.208-.897-.311-1.382-.173-.336.069-.598.276-.785.483-.597-.276-1.083-.241-1.456-.103-.075-1.107-.262-3.009-1.867-3.25-.746-.104-1.233.414-1.531.864-.224-.243-.411-.554-.337-.864l-.036-.035zm-4.369 5.429c.036-.346.373-.484.784-.657.261-.104.522-.207.635-.484l-.262-.761c-.598-1.002-1.121-2.109-.373-2.593.97-.623 1.755-.138 2.838.968.373.38.597.588.933.588.449 0 .634-.381.859-.761.149-.277.448-.726.672-.726.896.104.934 1.936.971 2.593 0 .484 0 .761.373.899.299.104.561-.034.71-.138.261-.174.522-.312.971-.069a3.96 3.96 0 0 0-.075.657c0 .345 0 .691.075.933v.208c-.485-.034-1.12 0-1.494.795a1.282 1.282 0 0 0-.112.484c0 .554.373 1.107.785 1.625a3.546 3.546 0 0 0-1.047-.311 7.272 7.272 0 0 0-.896-1.902c-.41-.656-1.755-2.04-2.09-1.694-.336.346.635 1.452 1.007 1.971.263.414.486.795.635 1.141-.41-.207-.895-.346-1.419-.138-.784.311-.71 1.14-.597 1.694-1.344-.174-1.568-.347-1.568-.45 0-.138.149-.277.373-.449l.635-.933c0-.554-.56-.727-1.27-.9-1.195-.345-2.203-.656-2.091-1.556l.038-.034zm-2.653 3.388c.822-.829 1.756-.38 2.802.242l.933.38h.224c.113.831 1.233 1.107 2.352 1.28-.298.692-.447 1.832.524 3.388-.224.242-.299.588-.224.934.186.692.97 1.417 1.941 1.798 1.195.45 2.391.484 3.398.173h.225l.111-.103s.076 0 .113-.035c.074.657.411 1.14.747 1.451a1.813 1.813 0 0 0-.523.693 1.947 1.947 0 0 0-1.195-.104c-.859-1.038-1.904-.727-2.464-.519-.262-.554-.822-1.486-1.569-1.798h-1.12s-.336.138-.449.242c-.448-.899-1.157-1.487-1.941-1.694h-.225a1.69 1.69 0 0 0 0-.865c-.149-.553-.858-.587-1.455-.622-1.158-.069-1.532-.207-1.532-.83l.224-.553.299-.9-.561-.898c-.709-.76-.97-1.211-.559-1.591l-.076-.069zm-.633 4.565v-.104.104zm-9.71-.382c.075-.172.448-.345.71-.449l.634-.345c.261-.242.187-.588.075-1.073-.224-1.105-.261-1.798.336-2.005.298-.104.561.138 1.008.658l.821.622c.599.138.935-.415 1.158-.831.113-.173.299-.553.412-.587.41 0 .635 1.28.709 1.832.111.658.187 1.073.597 1.211.561.173.935-.277 1.158-.518.187-.209.299-.313.374-.313.373.104.448 1.038.485 1.591.037.623.075 1.072.411 1.314.187.138.709.381 1.419-.103.56.518 1.493.587 2.054.622 0 0 .335 0 .485.069 0 .242-.112.485-.186.623a7.11 7.11 0 0 0-4.071-.138l-.336.069h-.374l-1.083.414s-.036.07-.074.104c-.523-.38-1.27-.934-1.793-1.556-.858-1.002-1.27-2.213-1.606-2.109-.671.242.187 1.832.635 2.455.673.865 1.98 1.97 2.764 2.42v.07c0 .414.074.864.186 1.313-.671.243-.858.865-.97 1.21v.07c-.113 0-.225.034-.225.034h-.075c-.148-.173-.261-.691-.335-.898-.113-.52-.225-.935-.561-1.176-.448-.311-1.083-.104-1.642.103 0 0-.523.138-.598.173-.149-.104-.336-.207-.336-.311 0 0 0-.069.074-.069a188.12 188.12 0 0 1-.746-.899l-.038-.035c.262-.208.784-.553 1.009-.553.261 0 .523-.173.597-.38.112-.415-.261-.588-.672-.761-2.204-.934-2.502-1.521-2.39-1.798v-.07zm-.486 9.544c-.783.277-1.119.381-1.306.173l-.112-.311c.036-.312.41-.623.56-.727.186-.103.262-.311.224-.518-.038-.207-.224-.345-.449-.38-.484-.069-1.867-.415-2.277-1.107-.15-.276-.15-.587.075-1.002.297-.589.709-.589 1.493-.347h.747c.373-.173.336-.553.298-.864-.074-.552 0-.761.187-.83.56-.207 1.345.174 1.83.589l.821.967.337.416c.448.345 1.046.138 1.606-.07 0 0 .635-.173.671-.173v.035c0 .138.113.519.113.519.075.311.149.656.299.967-.486.208-.972.554-1.158 1.246-.037.172-.075.311-.075.449 0 1.003.971 1.59 1.419 1.832 0 0 .075 0 .112.069 0 .104.038.173.038.277v.174c-.225.138-.412.276-.56.38-.449.034-1.345 0-1.868.794v.035c-.223-.207-.486-.449-.747-.622.411-.484.86-1.21.411-1.798-.747-.899-1.867-.484-2.651-.173h-.038zm-1.531 7.642-.784.345c-.709.45-1.269.727-1.904.173-.187-.138-.262-.242.186-.76.187-.242.523-.622.187-1.003l-.784-.346c-1.195-.311-1.83-.588-1.718-1.313.075-.347.225-.416.261-.451.299-.207.934-.069 1.383 0h1.083c.485-.242.41-.76.336-1.14-.151-.727-.038-.761.186-.796.598-.138 1.456.519 1.942.934.41.346.672.553 1.009.484.448-.069.559-.484.597-.726.112-.381.149-.485.41-.519.411-.069 1.308.658 2.017 1.625 0 0 .037 0 .075.035 0 .069.074.172.112.207l.186.52.337.829c-.486-.138-.971-.277-1.495-.346-1.12-.172-4.444 0-4.48.415 0 .38 2.987.38 3.921.518.223 0 .448.07.672.104-.411.277-.485.727-.485 1.211V36.033c-.038 0-.113-.07-.113-.07-.635-.38-1.643-1.002-2.651-.518-.15-.034-.299-.069-.486-.069v-.034zm6.498 4.841s-.187.311-.262.449l-.148-.069s-.225-.277-.374-.208l-.747.346c-.523.38-1.867 1.418-2.465.864-.223-.173-.261-.38-.299-.726l-.298-.795-1.046-.208c-.971.034-1.456 0-1.681-.587-.036-.139-.111-.311 0-.45.113-.207.599-.345.935-.414l.933-.451v-1.105l-.037-.553c.374-.209.896.069 1.531.483.485.311.971.622 1.456.311.411-.276.411-.829.374-1.383 0-.242-.037-.656 0-.795.373-.207 1.231-.345 1.68 0h.074a6.71 6.71 0 0 0 1.27.864c-.187.52 0 1.211.597 1.729.187.173.486.38.934.518-.299.209-.485.416-.522.692v.104c0 .173.074.277.149.415-.635 0-1.419.104-2.054.934v.035zm8.664 2.765-.038-.069c-.149-.277-.298-.587-.672-.691a.875.875 0 0 0-.671.138c-.45.346-.635.83-.86 1.383-.336.795-.635 1.591-1.755 1.798-.448.07-.486.07-.56-.312-.075-.276-.262-.967-1.083-.898l-1.233.449c-.448.208-1.68.727-1.941.589-.448-.624 0-1.211.896-2.007l.485-.483c.261-.415-.075-.795-.223-1.003-.262-.312-.449-.519 0-1.038.484-.587 1.045-.552 1.68-.483.336.069.709.103.971-.173a.478.478 0 0 0 .149-.347c0-.311-.298-.552-.411-.656 0 0-.223-.242-.261-.277.074 0 .187-.103.187-.103.858-.415 2.128.207 2.614.449.224.138.411.207.672.138.149-.069.299-.173.336-.311.112-.276 0-.484-.187-.76l-.298-.589s.485-.207.671-.172h.673c-.15.207-.299.483-.299.726 0 .139 0 .242.112.381.187.311.485.518.821.691-1.343.38-2.053.865-3.061 1.556-.598.414-1.755 1.348-1.718 1.625.074.276 3.398-1.522 4.817-2.075.448-.172 1.195-.345 1.792-.449 0 .035-.074.069-.074.138-.41 1.348-.971 2.489-1.382 2.87l-.149-.035zm-.187-4.805.299-.312.336-.83c-.075-.484-.597-.484-1.083-.484h-.859c-.784-.069-1.493-.276-1.756-.968 0 .138.374-.207.374-.207.261-.208.747-.657.336-1.106l-.784-.278c-.971-.104-1.307-.311-1.307-.725 0-.07.224-.208.411-.277.299-.138.672-.345.672-.761l-.522-.726c-.673-.553-.934-.899-.561-1.452.149-.242.299-.277.411-.311.522-.104 1.382.449 1.68.656l.299.173c.561.208.822-.345.971-.588 0 0 .112-.172.186-.276 1.046.311 1.308 1.211 1.383 1.729 0 .242.223.449.485.449.261 0 .486-.104.56-.345.112-.38.374-.831.485-.865.299.243 1.083 1.417 1.009 2.835 0 .242.15.45.41.519.225.069.486-.035.635-.242.112-.207.337-.415.411-.415.224.138.71.9.784 2.94v.276c-.223.104-1.157-.207-2.016-.761h-.038c-.036 0-.074-.069-.149-.069a24.405 24.405 0 0 1-1.979-1.279s-1.755-1.176-1.98-.83c-.223.345 1.383 1.659 1.383 1.659a53.63 53.63 0 0 0 1.978 1.28c.038 0 .113.069.15.104.635.553 1.158 1.209 1.232 1.487-2.017.622-3.435.656-3.808.103l-.038-.103zM29.985 61.24v.069-.069zm.822 4.529c-1.12 0-1.792-.449-1.829-.449-.225-.173-.561-.104-.747.069 0 0-.449.414-1.569.414-1.12 0-1.979-.345-2.577-1.141-.336-.449-.523-1.624 0-2.489.448-.795 1.307-1.175 2.54-1.175.971 0 2.277.449 2.838 1.141l2.277 3.112s.261.207.411.311c-.299.103-.709.207-1.344.207zm15.908 0c-1.008 0-1.606-.415-1.643-.449a.563.563 0 0 0-.747.069s-.374.414-1.419.414c-.933 0-1.829-.449-2.352-1.141l-2.315-3.111s-.225-.242-.337-.346c.261-.069.598-.172 1.121-.172 1.045 0 1.605.414 1.642.449a.563.563 0 0 0 .747-.069s.374-.415 1.42-.415c.934 0 1.829.449 2.353 1.141l2.277 3.112s.224.242.374.345c-.262.069-.598.173-1.121.173zm-4.854-5.636c-.412.104-.71.242-.934.38-.373-.207-1.008-.449-1.942-.449h-.149c1.008-.553 2.315-.484 3.025-.415v.484zm3.921 1.107.112.173-.15-.138h.038v-.035zm3.024-.727c-.373-.207-1.045-.449-1.941-.449-.262 0-.449 0-.635.034.298-.552.821-1.141 1.531-1.141.298 0 .56.069.746.278.337.311.448.829.486 1.174-.074.035-.149.07-.187.104zm13.668 5.256c-1.008 0-1.606-.415-1.643-.449a.612.612 0 0 0-.784.069s-.374.414-1.419.414a3.125 3.125 0 0 1-2.391-1.141l-2.314-3.111s-.225-.207-.299-.311c.261-.104.635-.173 1.195-.173 1.045 0 1.606.415 1.643.449.224.173.56.139.747-.069 0 0 .373-.414 1.419-.414.933 0 1.829.449 2.352 1.14l2.315 3.112c.076.104.225.208.337.311-.261.104-.635.173-1.195.173h.037zM52.84 42.43c-2.838 4.01-1.419 10.166-.748 11.306l.075.138c.673 1.142 1.606 2.663 5.49 4.15l.448.173c2.539 1.002 3.51 1.383 3.996 1.901-.748.07-1.233.277-1.495.45-.597-.311-1.269-.519-1.978-.519a4.39 4.39 0 0 0-1.046.139c-.112-.277-.261-.553-.261-.588-.598-1.141-1.718-1.556-2.764-1.971-1.382-.554-2.801-1.106-3.66-3.181-.447-1.107-.672-2.594-.746-3.977-.075-.967-.411-4.08-.672-4.08-.299 0-.486 3.147-.411 4.15.074 1.452.335 3.042.822 4.253 1.045 2.489 2.837 3.181 4.256 3.769 1.083.414 1.942.761 2.316 1.728v.173c-.374-.173-.897-.311-1.643-.311-1.083 0-1.756.276-2.092.484a4.045 4.045 0 0 0-2.016-.519c-.261 0-.486 0-.673.035-.074-.484-.261-1.107-.747-1.556a2.2 2.2 0 0 0-1.53-.587c-1.233 0-2.279.898-2.839 2.454v.104s-.037 0-.074.034a3.83 3.83 0 0 0-1.868-.484v-.899c.038-.38.151-.76.336-1.14.188-.311.412-.693.635-1.073 1.27-2.005 1.345-3.941 1.047-3.941-.3 0-1.308 2.351-2.018 3.423-.261.38-.484.76-.671 1.107a3.97 3.97 0 0 0-.411 1.106c-1.195-.138-3.846-.173-4.967 1.798v.069c-.597-.311-1.269-.519-1.942-.519-.97 0-1.568.277-1.903.484-.038 0-.113-.069-.151-.069 1.42-.898 3.698-1.971 5.304-2.731l.858-.416c2.39-1.14 3.996-3.492 4.482-6.638.036-.277 0-.381-1.831-3.077-.821-1.211-1.867-2.732-2.016-3.147-.336-.829-2.614-4.218-5.303-5.083a19.693 19.693 0 0 0 1.644-.414c.335-.104.56-.346.635-.623v-.172c0-.243-.113-.52-.262-.796.374.069.746.104 1.046 0 .299-.138.635-.484.597-1.175 0-.485-.075-1.003-.15-1.522h.037c.299.035 1.495.864 1.383 3.907-.15 4.495 4.891 7.642 5.227 7.711.187.034.486-.035.599-.173.372-.311.522-1.073.522-2.005 0-1.142-.187-2.56-.448-3.804-.859-4.53-3.734-5.29-4.817-5.601l-.262-.069c.448-.346 1.008-.831 1.307-1.418.075 0 .112.069.187.104.822.345 1.83 0 2.539-.277v.069c0 .899-.037 2.766 1.269 4.806l1.532 2.386.784 1.244c.112.208.373.278.597.208.86-.208 1.531-4.529 1.531-4.598v-.692c0-1.003-.186-2.386-.709-3.63.074.069.15.138.262.173.298.069.597-.069.672-.346.261-.83.448-1.521.56-2.041v.416l.224 1.036c.336.346.709.208 1.68-.241.337-.139.747-.346 1.195-.519a11.7 11.7 0 0 0-1.718 2.974c-.484 1.175-.56 2.524-.597 3.733 0 .865-.074 1.66-.261 2.145v.173c0 .173.112.345.298.449.224.138.524.069.709-.138.599-.762 1.943-2.351 3.175-3.527-.261.518-.448 1.003-.522 1.28v.069a.48.48 0 0 0 .223.414c.187.104.411.138.561 0 .037 0 .821-.38 2.09-.276v.035c-1.045.345-3.248 1.348-4.966 3.768l.038.035zm3.435-4.703c.261-.553.597-1.21.934-1.798.187-.277.523-.484 1.158-.76.186-.069 1.605-.864 1.418-1.211-.224-.345-1.643.207-1.867.312-.709.311-1.531.761-1.569.83-.485.276-1.007.691-1.568 1.176-.149-.347-.224-.831.113-1.211l.597-.38c.484-.207.934-.485 1.083-1.211.709.104 1.344.139 1.606 0 .484-.207.559-.656.597-.933.074 0 .149.035.149.035.859.207 2.427.587 3.585-.381.225-.208.374-.415.374-.657 0-.103-.113-.207-.149-.311.297 0 .635.069.97.069 0 .069.037.139.037.242v.069c0 .208-.261.38-.559.588l-.635.588s-.038.173-.038.277c0 .276.187.518.336.622.15.138.261.242.261.483v.105c-.075.588-.709.761-1.904.899l-1.121.311s-.185.276-.185.414c0 .312.261.554.372.693l.225.276-.15.173c-.224.173-1.082.311-1.53.38l-.748.207a5.056 5.056 0 0 0-1.68.104h-.112zm13.294 6.466c-.299.38-.673.346-1.382.138l-.485-.103c-.374 0-.561.242-.747.414-.187.208-.336.38-.71.415-.41 0-.971-.518-1.307-.829l-.709-.484c-.486-.069-.673.311-.747.484-.111.242-.187.38-.672.311-.523-.069-1.083-1.28-1.308-1.867-.261-.588-.41-.9-.746-1.038-.448-.173-.784.174-.896.277-.41-.381-.747-1.832-.897-2.939.822.277 2.054.76 2.764 1.245.597.415 1.718 1.279 2.016 1.037.299-.242-.71-1.384-1.381-1.833a15.28 15.28 0 0 0-2.129-1.209c2.054-.727 3.399-.554 3.622-.416l-.074.207-.075.52c.075.483.597.553 1.717.656.524.07 1.607.173 1.831.311 0 0-.038.173-.149.38-.076.174-.187.382-.187.589 0 .104 0 .173.074.277.149.345.561.449 1.158.587.336.069.971.276 1.12.415l-.187.139c-.149.173-.41.415-.41.725v.173l.56.622c.374.278.523.416.523.554a.363.363 0 0 1-.112.242h-.075zm-1.793-4.045h.15c-.037 0-.112-.035-.112-.035l-.038.035zm5.228-.865c-.074.207-.298.242-.933.173l-.971.138-.299.727c0 .242-.038.276-.112.311-.224.138-.635.104-1.008 0l-.411-.069a12.184 12.184 0 0 0-.859-.277s-.186-.034-.336-.103c.112-.208.262-.451.262-.762 0-.207-.075-.415-.225-.622-.336-.414-1.194-.553-2.502-.691 0 0-.41-.07-.709-.105 0-.103.037-.207.037-.311 0-.276-.074-.552-.373-.76-.485-.345-1.643-.449-3.063-.138-.074-.173-.223-.415-.298-.622h.111c.635-.07 1.57-.174 2.205-.658 1.68.865 3.696.762 4.705.38l.224-.103c.149.207.373.45.672.519l1.232-.069c.374-.069 1.121-.208 1.307-.105.449.347.411.451.262.761l-.15.864c.112.313.373.416.673.52.709.276.896.449.635.968l-.076.034zm1.607-1.245s.149.07.26.105c-.074 0-.149-.069-.26-.105zm3.771-1.244v-.104V36.794zm2.016-1.452c-.037.31-.149.483-.336.587-.374.243-1.083.104-1.531 0h-.933c-.299.208-.336.554-.374.9-.037.38-.112.725-.299.829-.298.138-1.158-.242-1.493-.38-.523-.208-.897-.381-1.195-.069l-.224.483c-.037.173-.113.311-.149.382-.337-.382-.822-.589-1.046-.658v-.069c.075-.173.224-.415.224-.726 0-.345-.187-.761-.747-1.21-.598-.45-1.494-.242-2.241-.104l-.672.104s-.261-.277-.336-.519c.299-.069.523-.138.784-.207.224 0 .449-.069.673-.069.971-.069 4.742.553 4.742.069 0-.346-2.241-.761-3.735-.9a3.47 3.47 0 0 0 1.196-1.798s.074-.138.074-.172c0 0 .113-.07.15-.104.15.069.224.242.335.553.076.243.15.519.45.658.298.138.559 0 1.007-.277.597-.346 2.016-1.176 2.54-.692.41.38.298.623.149.934-.187.449-.112.76.261.933l.523.104c1.68.241 2.278.623 2.166 1.418h.037zM64.942 86.164c-.561 0-.971.415-.971.899 0 .485.448.9.971.9.522 0 .971-.415.971-.9 0-.484-.449-.899-.971-.899zm1.194-2.924c-.523 0-.971.415-.971.899 0 .485.448.899.971.899.523 0 .971-.414.971-.899 0-.484-.448-.899-.971-.899zm.033-1.394c.523 0 .971-.415.971-.898 0-.485-.448-.9-.971-.9-.522 0-.97.415-.97.9 0 .483.448.898.97.898zm-1.68-2.723c.561 0 .972-.415.972-.899 0-.484-.411-.899-.972-.899-.559 0-.971.415-.971.899 0 .484.45.899.971.899zm-2.907-1.697c.523 0 .971-.415.971-.898 0-.485-.448-.9-.971-.9-.522 0-.97.415-.97.9 0 .483.448.898.97.898zm-3.365-.446c.523 0 .971-.414.971-.899 0-.484-.448-.899-.971-.899-.522 0-.97.415-.97.899 0 .485.448.899.97.899zm-3.325.67c.522 0 .97-.415.97-.899 0-.485-.448-.899-.97-.899-.523 0-.971.414-.971.899 0 .484.448.899.971.899zm-3.209.982c.523 0 .971-.415.971-.899 0-.484-.448-.899-.971-.899-.522 0-.971.415-.971.899 0 .484.411.899.971.899zM32.561 89.481v.069c.486.864 1.68 1.59 3.249 1.141.784-.242 1.606-.381 2.091-1.245.261-.449.448-1.003-.075-1.66-.149-.172-.522-.345-.709-.276-.149.069-.261.346-.075.553.262.276.113.761-.336.968-.299.139-.635 0-.672-.103 0-.069.56-.416.037-.831-.411-.276-1.456-1.245 0-1.832 1.12-.484 1.979.899 2.091 1.107.112.207.225.104.187-.069-.224-1.004-1.12-1.315-1.381-2.421-.187-.83.448-1.488.784-1.764a.486.486 0 0 1 .485-.069c.448.173 1.233.554 1.419 1.349.224 1.107-.485 1.729-.262 2.732.038.207.187.207.225 0 0-.209.223-1.798 1.456-1.763 1.569.068 1.008 1.313.747 1.728-.336.553.373.657.373.691.038.104-.186.415-.597.381-.486-.035-.822-.45-.709-.795.074-.242-.15-.451-.299-.451-.224 0-.485.312-.561.52-.223.76.187 1.244.598 1.556.784.622 2.017.553 2.652.484 2.202-.208 2.351-1.453 2.351-1.453-.448.173-1.455.519-1.455.519h-.112c-.187 0-.336-.139-.336-.311v-1.971s.149-.311.336-.311h.148l1.495.553-.411-1.14v-.139c0-.174.15-.312.335-.312h2.54c.187 0 .336.138.336.312v.139l-.448 1.14 1.531-.553h.149c.187 0 .337.138.337.311v1.971c0 .172-.15.311-.337.311h-.111s-1.009-.346-1.494-.519c0 0 .15 1.245 2.353 1.453.635.069 1.867.138 2.688-.484.411-.312.822-.796.598-1.556-.075-.208-.336-.52-.561-.52-.149 0-.373.243-.298.451.112.345-.225.725-.709.795-.374.034-.635-.277-.561-.381 0 0 .673-.138.374-.691-.261-.415-.822-1.66.746-1.728 1.233-.035 1.42 1.554 1.457 1.763 0 .207.149.207.223 0 .225-1.003-.485-1.625-.26-2.732.186-.795.971-1.176 1.419-1.349.187-.069.373 0 .485.069.336.276.97.969.784 1.764-.224 1.106-1.158 1.417-1.381 2.421-.038.207.074.276.186.069.113-.208.971-1.591 2.091-1.107 1.419.622.374 1.556 0 1.832-.522.415.075.762.038.831 0 .103-.374.276-.673.103-.448-.207-.559-.692-.336-.968.187-.207.075-.484-.074-.553-.187-.069-.597.104-.71.276-.522.622-.336 1.211-.074 1.66.485.864 1.307 1.003 2.09 1.245 1.569.484 2.802-.277 3.25-1.141v-.035c1.045-1.314 3.435-4.357 3.435-7.123s-2.614-4.806-6.05-4.806c-1.531 0-2.95.484-4.331.934-1.494.518-2.95.967-4.407.829v-2.8a.52.52 0 0 0-.522-.519c-.3 0-.561.242-.561.519v7.4h-3.847v-7.4c0-.277-.223-.519-.559-.519-.336 0-.56.242-.56.519v2.8c-1.457.138-2.913-.311-4.406-.829-1.383-.45-2.801-.934-4.333-.934-3.435 0-6.049 2.074-6.049 4.806 0 2.731 2.428 5.809 3.436 7.123l.037-.034zm22.145-10.028c1.343-.449 2.613-.898 3.957-.898 2.838 0 4.967 1.625 4.967 3.803 0 .726-.224 1.452-.523 2.213-.149-.519-.373-1.037-.746-1.487-.896-1.106-2.39-1.626-4.369-1.626-.897-.864-2.653-1.487-4.444-1.521H53.1c.559-.173 1.083-.346 1.642-.518l-.036.034zm-4.781.9h1.009c-.374.138-.673.311-1.009.518v-.518zm.038 1.832c1.007-1.141 2.651-1.28 3.547-1.28 1.829 0 3.324.726 3.847 1.349a.548.548 0 0 0 .448.208c1.755-.07 2.95.345 3.696 1.21.784.933.748 2.247.561 2.869-.187.311-.336.589-.523.831.149-1.798-1.083-3.009-2.353-3.596 0 0-.374-.173-.523 0-.261.345 2.316 2.04 1.644 4.149-.411 1.245-1.121 1.694-1.718 1.867h-.187c.299-.242.448-.519.448-.864V88.581c.374-.345.747-.864.747-1.52v-.174c-.037-.449-.335-1.071-1.344-1.52-.112-.07-.225-.07-.337-.104 0-.071.038-.105.076-.174 0-.173.036-.311.036-.484 0-1.141-.858-2.074-1.455-2.454 0 0-.412-.277-.897-.173-.709.173-2.204.829-2.502 2.212v.208h-.373c-.784 0-1.27.276-1.568.553 0-.242-.263-.45-.747-.346.299-.345.783-.864 1.344-1.245.746-.518 1.568-.829 1.568-.933 0-.104-.336-.207-.672-.207-.41 0-.934.207-1.083.276a6.632 6.632 0 0 0-1.606 1.107v-1.28h.038l-.112-.138zm-7.282 2.697c-.299-.277-.785-.519-1.569-.553h-.373v-.208c-.299-1.348-1.83-2.005-2.502-2.212-.485-.139-.897.172-.897.172-.597.381-1.455 1.313-1.455 2.455 0 .138 0 .311.036.484 0 .069 0 .103.076.172-.112 0-.225.071-.374.105-1.008.45-1.27 1.072-1.344 1.521v.174c0 .622.41 1.14.747 1.52v.069c0 .104-.038.209-.038.278 0 .311.149.622.448.864h-.224c-.56-.173-1.307-.622-1.68-1.867-.672-2.109 1.941-3.804 1.643-4.149-.112-.173-.523 0-.523 0-1.269.587-2.501 1.832-2.353 3.596-.148-.242-.336-.485-.522-.762v-.034c-.187-.588-.224-1.936.56-2.869.71-.865 1.942-1.28 3.697-1.211a.549.549 0 0 0 .448-.207c.522-.623 2.017-1.315 3.846-1.349.897 0 2.54.138 3.548 1.28v1.278a6.18 6.18 0 0 0-1.606-1.106c-.187-.069-.672-.242-1.083-.276-.374 0-.672.069-.672.207 0 .104.859.415 1.568.933.561.382 1.045.9 1.345 1.245-.485-.103-.747.104-.747.346v.104zm1.195-4.529v.518a4.491 4.491 0 0 0-1.008-.518h1.008zm-8.739-1.798c1.307 0 2.615.449 3.959.898.56.173 1.083.346 1.643.518h-.448c-1.83 0-3.548.658-4.444 1.522-1.979 0-3.473.519-4.369 1.625a3.484 3.484 0 0 0-.746 1.487c-.3-.76-.524-1.521-.524-2.213 0-2.178 2.129-3.803 4.967-3.803l-.038-.034zm10.236-3.866h1.009v1.002c0 .276.261.484.561.484.298 0 .522-.208.522-.484v-1.002h1.008c.299 0 .56-.208.56-.485s-.223-.484-.56-.484h-1.008v-.933c0-.278-.224-.485-.522-.485-.3 0-.561.207-.561.485v.933h-1.009c-.299 0-.56.207-.56.484s.261.485.56.485zm12.809 24.465c0-2.214-7.431-2.766-11.352-2.766-3.921 0-11.352.587-11.352 2.766 0 2.178 7.431 2.766 11.352 2.766 3.921 0 11.352-.588 11.352-2.766zm-11.352 1.764c-6.759 0-10.232-1.246-10.232-1.764 0-.519 3.473-1.763 10.232-1.763 6.759 0 10.269 1.244 10.269 1.763 0 .518-3.473 1.764-10.269 1.764zM28.943 86.164c-.56 0-.971.415-.971.899 0 .485.448.9.971.9.523 0 .971-.415.971-.9 0-.484-.448-.899-.971-.899zm-.229-2.047c0-.484-.448-.899-.97-.899-.524 0-.971.415-.971.899 0 .484.447.898.971.898.522 0 .97-.414.97-.898zm-1.004-2.271c.523 0 .971-.415.971-.898 0-.484-.448-.9-.971-.9-.524 0-.971.416-.971.9 0 .483.447.898.971.898zm1.679-2.723c.561 0 .971-.415.971-.899 0-.484-.448-.899-.971-.899-.522 0-.971.415-.971.899 0 .484.449.899.971.899zm2.919-1.697c.559 0 .971-.415.971-.898 0-.485-.448-.9-.971-.9-.523 0-.971.415-.971.9 0 .483.448.898.971.898zm3.36-.446c.522 0 .97-.414.97-.899 0-.484-.448-.899-.97-.899-.523 0-.972.415-.972.899 0 .485.449.899.972.899zm3.32.67c.522 0 .971-.415.971-.899 0-.485-.449-.899-.971-.899-.524 0-.972.414-.972.899 0 .484.448.899.972.899zm3.209.982c.522 0 .97-.415.97-.899 0-.484-.448-.899-.97-.899-.523 0-.971.415-.971.899 0 .484.448.899.971.899zm4.709-2.044c-.523 0-.971.415-.971.9 0 .484.448.898.971.898.522 0 .972-.414.972-.898 0-.485-.45-.9-.972-.9zm0 2.523c-.523 0-.971.414-.971.898 0 .485.448.9.971.9.522 0 .972-.415.972-.9 0-.484-.45-.898-.972-.898zm0 2.567c-.523 0-.971.414-.971.898 0 .485.448.9.971.9.522 0 .972-.415.972-.9 0-.484-.45-.898-.972-.898zm3.922 11.029c0-.242-.225-.449-.524-.449-.298 0-.485.207-.485.449 0 .242.224.485.485.485.299 0 .524-.208.524-.485zm6.684 1.062c0-.242-.223-.484-.523-.484-.297 0-.484.207-.484.484 0 .276.223.484.484.484.262 0 .523-.208.523-.484zm3.136.497c-.448-.242-1.045-.07-1.306.345-.262.416-.075.969.373 1.211.448.242 1.045.069 1.307-.346.261-.449.074-.969-.374-1.21zm-5.974-1.221c0-.483-.448-.898-.97-.898-.524 0-.972.38-.972.898 0 .519.448.899.972.899.522 0 .97-.38.97-.899zm-10.644-.338c0-.242-.223-.449-.523-.449-.261 0-.484.207-.484.449 0 .242.223.485.484.485.3 0 .523-.208.523-.485zm-6.686 1.085c0-.244-.225-.485-.523-.485-.299 0-.523.207-.523.485 0 .276.224.483.523.483.298 0 .523-.207.523-.483zm-3.213 2.03c.448-.242.635-.795.373-1.211-.262-.415-.859-.587-1.307-.345-.448.241-.635.796-.374 1.21.263.449.86.588 1.308.346zm6.949-2.777c0-.483-.448-.898-.971-.898-.523 0-.971.38-.971.898 0 .519.448.899.971.899.523 0 .971-.38.971-.899zm6.798-.491c0-.484-.412-.899-.972-.899s-.971.415-.971.899c0 .484.448.899.971.899.522 0 .972-.415.972-.899zm15.227-3.447c-.635.762-1.978 2.905-2.165 3.562v.068h-.076c-.559-.31-1.269-.621-2.24-.967-2.988-1.038-7.244-1.625-11.688-1.625h-.038c-4.443 0-8.7.587-11.688 1.625-.933.346-1.681.657-2.24.967h-.076v-.068c-.148-.692-1.493-2.835-2.165-3.562-.187-.207-.448 0-.336.207 1.083 1.902 1.382 3.458 1.494 4.081.074.311.112.519.372.622a.567.567 0 0 0 .524-.034c.634-.38 1.456-.83 2.764-1.28 2.838-1.002 6.982-1.556 11.277-1.556h.038c4.331 0 8.439.554 11.314 1.556 1.307.45 2.165.9 2.764 1.28.149.103.336.103.523.034.261-.103.335-.345.372-.622a12.24 12.24 0 0 1 1.494-4.081c.113-.207-.148-.414-.335-.207h.111zm-16.242 4.905c-6.872 0-14.153 1.521-14.153 4.356 0 1.28 1.531 2.316 3.846 3.043.262.069.933.242 1.008.138l-.859-.38c-2.09-.899-2.912-2.006-2.912-2.801 0-1.591 5.601-3.354 13.07-3.354 7.468 0 13.069 1.763 13.069 3.354 0 .795-.746 1.902-2.8 2.767 0 0-.784.311-.822.38-.074.103.897-.138.897-.138 2.315-.727 3.808-1.729 3.808-3.044 0-2.835-7.281-4.356-14.152-4.356v.035zm-21.289 15.262s.597-1.66 3.847-1.66c1.903 0 2.912.691 3.808 1.278.672.485 1.307.9 2.203.9h2.128v14.073h-2.165c-.709 0-1.494-.312-2.389-.692-1.121-.45-2.391-.968-3.885-.968-1.642 0-2.912.864-3.509 1.417v-14.348h-.038zm-13.108.484h2.167c.896 0 1.531-.45 2.203-.9.896-.588 1.905-1.279 3.808-1.279 3.286 0 3.847 1.729 3.885 1.798v14.21c-.635-.518-1.867-1.417-3.511-1.417-1.494 0-2.763.519-3.883.968-.896.38-1.681.692-2.39.692h-2.204v-14.072h-.075zm-2.277 1.141c.187-.105.746-.45 1.194-.727v14.107c0 .277.225.484.561.484h2.726c.97 0 1.866-.345 2.838-.76 1.082-.416 2.166-.865 3.473-.865 1.792 0 3.1 1.418 3.136 1.452a.624.624 0 0 0 .412.173h1.045s.299-.069.41-.173c0 0 1.345-1.452 3.137-1.452 1.27 0 2.39.449 3.437.865.97.38 1.867.76 2.837.76h2.726c.299 0 .561-.207.561-.484v-14.107c.484.277 1.008.588 1.194.727v14.348H27.74s-.299.069-.373.174c0 0-.822.76-2.018.898h-.522c-1.195-.103-2.054-.898-2.054-.898-.111-.105-.224-.174-.373-.174H10.264v-14.348h-.075zm31.853 16.458H28.001s-.299.069-.411.173c0 0-.635.656-1.755.864-.373.069-1.195.069-1.605 0-1.158-.208-1.793-.864-1.793-.864a.62.62 0 0 0-.41-.173H7.985v-16.285h1.121v14.66a.52.52 0 0 0 .523.518h12.472a4.89 4.89 0 0 0 2.577 1.072h.747c1.232-.138 2.128-.761 2.464-1.072h12.473c.299 0 .56-.242.56-.518v-14.66h1.12v16.285zM31.88 120.24l.897.381c1.195.484 2.166.553 2.427.587.149 0 .262-.103.262-.207 0-.138-.113-.207-.225-.242-.223 0-1.12-.069-2.241-.519l-.858-.38-1.755-.657c-1.27-.311-2.54-.069-2.577-.069.15 0 .262.069.298.173 0 .103-.074.242-.186.276.299-.069 1.382-.173 2.353.069l1.68.622-.075-.034zm-1.675-3.602 1.68.623.896.381c1.195.483 2.166.552 2.428.552.149 0 .261-.103.261-.207 0-.138-.112-.242-.225-.242-.223 0-1.12-.069-2.24-.518l-.859-.38-1.755-.658c-1.27-.311-2.539-.069-2.576-.069-.113 0-.225.138-.187.277 0 .103.149.207.298.172.299-.069 1.382-.172 2.353.069h-.074zm-2.315-3.037c.299-.069 1.345-.173 2.353.069l1.681.623.896.38c1.195.484 2.166.553 2.427.553.15 0 .262-.104.262-.207 0-.139-.112-.242-.224-.242-.224 0-1.121-.07-2.24-.52l-.86-.38-1.755-.656c-1.307-.311-2.54-.07-2.576-.07-.113 0-.225.139-.187.277 0 .104.149.207.299.173h-.076zm.183-3.258s-.075.243-.187.277c.299-.069 1.382-.174 2.353.069l1.68.622.897.38c1.195.484 2.166.555 2.427.589.149 0 .262-.105.262-.209 0-.138-.113-.207-.224-.241-.225 0-1.121-.07-2.241-.519l-.859-.38-1.755-.658c-1.27-.311-2.54-.068-2.577-.068.149 0 .262.068.299.172l-.075-.034zm-13.14 10.855c.261 0 1.232-.07 2.428-.588l.896-.38 1.68-.622c.971-.243 2.016-.104 2.353-.069-.112 0-.225-.139-.187-.278 0-.103.149-.207.298-.172 0 0-1.268-.242-2.538.069l-1.755.657-.897.38c-1.12.45-2.017.519-2.24.519-.15 0-.225.103-.225.242 0 .138.112.207.261.207l-.074.035zm-.003-2.959c.261 0 1.232-.069 2.426-.553l.897-.38 1.68-.622c.972-.243 2.017-.139 2.353-.069.149 0 .261-.07.299-.174 0-.139-.075-.242-.187-.277 0 0-1.27-.242-2.54.069l-1.755.658-.858.38c-1.121.449-2.017.519-2.241.519-.15 0-.224.103-.224.241 0 .104.112.208.261.208h-.111zm.002-2.99c.261 0 1.232-.07 2.427-.554l.896-.38 1.68-.623c.972-.241 2.017-.138 2.315-.069.113 0 .262-.069.299-.172 0-.104-.074-.242-.186-.277 0 0-1.27-.243-2.539.069l-1.756.657-.897.38c-1.119.449-2.016.518-2.239.518-.15 0-.225.105-.225.243 0 .104.113.208.262.208h-.037zm.001-2.957c.261 0 1.232-.069 2.428-.588l.896-.381 1.68-.622c.971-.242 2.016-.138 2.315-.069-.112 0-.223-.138-.187-.276 0-.104.15-.208.3-.173 0 0-1.27-.242-2.54.069l-1.755.657-.859.38c-1.12.45-2.017.519-2.24.519-.15 0-.225.104-.225.242s.112.207.261.207l-.074.035zm60.536 7.94.897.381c1.195.484 2.166.553 2.427.588.113 0 .224-.104.262-.207.037-.104-.113-.208-.224-.243-.261 0-1.158-.068-2.241-.519l-.896-.38-1.756-.657c-1.007-.241-2.128-.138-2.539-.069-.149 0-.224.139-.186.277 0 .138.149.207.299.173.336-.07 1.381-.173 2.352.069l1.68.622-.075-.035zm-4.036-3.669c.336-.069 1.382-.173 2.353.069l1.68.622.897.38c1.194.485 2.165.554 2.427.554.111 0 .224-.104.26-.209 0-.138-.111-.241-.223-.241-.262 0-1.12-.07-2.241-.519l-.858-.38-1.756-.658c-1.008-.241-2.129-.138-2.539-.068-.149 0-.224.138-.187.277 0 .104.149.207.299.173h-.112zm0-2.984c.299-.069 1.344-.173 2.353.069l1.68.622.897.38c1.194.484 2.165.553 2.426.553.15 0 .261-.104.261-.207 0-.138-.111-.242-.223-.242-.262 0-1.12-.069-2.241-.518l-.896-.38-1.755-.658c-1.307-.311-2.54-.069-2.577-.069-.112 0-.224.138-.187.277 0 .104.15.208.299.173h-.037zm.002-2.959c.336-.069 1.344-.174 2.352.069l1.68.622.896.38c1.196.484 2.167.555 2.428.589.112 0 .225-.105.261-.209.038-.103-.112-.207-.223-.241-.225 0-1.121-.07-2.241-.519l-.86-.38-1.754-.658c-1.27-.311-2.539-.068-2.577-.068-.112 0-.223.138-.187.277 0 .138.149.207.299.173l-.074-.035zm-10.531 9.99.896-.38 1.681-.622c.97-.243 2.016-.104 2.353-.069-.15 0-.225-.139-.187-.278 0-.103.149-.207.298-.172 0 0-1.269-.242-2.539.069l-1.755.657-.896.38c-1.121.45-2.017.519-2.241.519-.149 0-.224.103-.224.242 0 .138.112.207.261.207.261 0 1.232-.069 2.428-.588l-.075.035zm-2.427-2.393c.261 0 1.232-.069 2.427-.553l.896-.381 1.681-.622c.97-.242 2.016-.138 2.353-.069.111 0 .261-.069.298-.173 0-.138-.075-.242-.187-.276 0 0-1.269-.242-2.539.069l-1.792.656-.859.38c-1.121.451-2.017.52-2.241.52-.149 0-.224.103-.224.242 0 .104.112.207.261.207h-.074zm0-2.968c.261 0 1.232-.07 2.427-.554l.896-.38 1.681-.623c.97-.241 2.016-.138 2.353-.069.111 0 .261-.069.298-.172 0-.104-.075-.242-.187-.277 0 0-1.269-.243-2.539.069l-1.755.657-.896.38c-1.121.449-2.017.518-2.241.518-.149 0-.224.105-.224.243 0 .104.112.208.261.208h-.074zm0-2.98c.261 0 1.232-.069 2.427-.587l.896-.38 1.681-.623c.97-.242 2.016-.139 2.353-.07-.15 0-.225-.138-.187-.276 0-.104.149-.207.298-.173 0 0-1.269-.242-2.539.069l-1.792.657-.859.381c-1.121.449-2.017.518-2.241.518-.149 0-.224.104-.224.242 0 .139.112.208.261.208l-.074.034zm10.754-3.041s.597-1.659 3.846-1.659c1.904 0 2.913.692 3.773 1.279.671.449 1.343.9 2.202.9h2.129v14.071h-2.166c-.71 0-1.494-.311-2.39-.656-1.12-.449-2.39-.969-3.883-.969-1.644 0-2.914.9-3.511 1.418v-14.384zm-13.07.485h2.129c.896 0 1.531-.45 2.203-.899.896-.588 1.867-1.28 3.772-1.28 3.286 0 3.846 1.729 3.883 1.798v14.211c-.597-.518-1.867-1.418-3.548-1.418-1.493 0-2.763.52-3.883.969-.896.345-1.681.656-2.39.656h-2.166v-14.072.035zm-2.278 1.175c.224-.138.747-.449 1.195-.726v14.108c0 .276.261.518.523.518h2.726c.934 0 1.866-.38 2.837-.761 1.085-.449 2.167-.864 3.436-.864 1.793 0 3.1 1.418 3.138 1.452a.62.62 0 0 0 .41.173h1.046s.298-.069.41-.207c0 0 1.345-1.453 3.138-1.453 1.268 0 2.389.45 3.473.864.97.382 1.866.762 2.837.762h2.726a.52.52 0 0 0 .523-.519v-14.107c.485.276 1.008.587 1.195.725v14.35H71.359s-.298.069-.41.138c0 0-.822.796-2.017.899h-.523c-1.194-.103-2.054-.899-2.054-.899a.556.556 0 0 0-.372-.138H53.846v-14.35l.037.035zm31.854 16.458H71.696s-.299.069-.411.173c0 0-.597.658-1.755.83-.336.07-1.195.07-1.569 0-1.157-.207-1.792-.864-1.792-.864a.622.622 0 0 0-.411-.173h-14.04v-16.251h1.12v14.66c0 .277.261.485.56.485H65.87c.336.311 1.269.933 2.539 1.071h.785c1.233-.138 2.129-.76 2.464-1.071h12.473c.298 0 .56-.243.56-.485v-14.66h1.12v16.251l-.074.034zm-21.959 20.018s-.372-.137-.521 0c-.149.138-.149.345 0 .448.149.104.224.173.224.207.149.139.297.173.446.104.149-.069.186-.242.112-.414-.075-.138-.149-.311-.298-.38l.037.035zm1.049-.384s.336.208.485.104c.187-.104.225-.311.113-.449-.113-.173-.3-.518-.487-.657-.186-.139-.41-.139-.559 0a.356.356 0 0 0 0 .519s.187.172.411.483h.037zm-5.082-.38s-.373-.069-.486.069a.314.314 0 0 0 .075.451s.149.069.374.242c.149.103.298.138.448.034.149-.103.149-.276.037-.416-.262-.276-.299-.345-.448-.414v.034zm.829-1.517c-.187-.069-.412-.034-.524.138-.111.173-.037.415.15.484 0 0 .41.208.709.449.15.104.373.139.485 0a.315.315 0 0 0 0-.483c-.149-.139-.597-.553-.82-.622v.034zm.707-1.892a.466.466 0 0 0-.635.173c-.149.208-.037.485.187.623 0 0 .374.104 1.157.657.187.138.411.138.561 0a.357.357 0 0 0 0-.519c-1.009-.865-1.196-.899-1.232-.934h-.038zm2.162-.965c-1.083-1.002-1.681-1.313-1.718-1.348-.262-.138-.597-.069-.747.173a.482.482 0 0 0 .186.691s.635.276 1.644 1.038c.187.138.448.173.635 0a.444.444 0 0 0 0-.589v.035zm-7.169 1.272s-.374.069-.448.242a.319.319 0 0 0 .261.38s.635.139.933.208c.15.069.337 0 .448-.103.074-.14 0-.313-.149-.416-.336-.173-.933-.346-1.083-.346l.038.035zm.109-1.909c-.224 0-.448.069-.485.276-.038.208.074.415.298.449 0 0 1.083.311 1.457.451.187.069.41 0 .486-.14.074-.172 0-.345-.151-.449-1.082-.518-1.381-.553-1.605-.587zm-.113-2.215a.478.478 0 0 0-.597.345c-.075.242.111.485.373.554 0 0 1.157.311 2.091.657.187.069.449 0 .523-.173.112-.173 0-.38-.149-.484-1.195-.588-2.166-.864-2.241-.864v-.035zm-.594-2.347c-.297-.069-.597.105-.635.381a.47.47 0 0 0 .412.588s1.568.449 2.763.899c.224.07.486 0 .598-.173.112-.208 0-.45-.187-.553-1.345-.657-2.875-1.142-2.951-1.142zm-12.362 8.744-1.345-.277a.469.469 0 0 0-.447.45c0 .208.186.485.41.519l1.419-.103s.299-.173.261-.311c0-.14-.187-.278-.298-.278zm.337-2.417-1.793-.069c-.261 0-.448.311-.41.553 0 .242.262.518.523.484l1.829-.346s.299-.207.261-.38c-.036-.138-.223-.276-.373-.242h-.037zm.148-1.962s.261-.243.187-.416c-.037-.138-.262-.241-.411-.207l-2.315.311c-.299.069-.41.416-.336.692.075.277.373.518.672.45l2.203-.864v.034zm-.259-2.876s-.298-.172-.447-.103l-2.988.933c-.261.103-.336.449-.224.727.111.241.485.449.746.345L43.428 139s.186-.311.112-.449v-.035zm-16.695 5.327.299-.103c.299-.069.448-.38.336-.622-.112-.278-.41-.416-.672-.312l-.299.103c-.299.069-.448.382-.336.623.075.277.411.415.672.311zm19.946 26.699c-.896 0-1.754-.138-1.792.242-.038.38.858.484 1.792.518.635 0 1.755-.103 1.681-.449-.075-.345-1.084-.311-1.681-.311zm2.088-2.421c-1.195-.034-2.352-.138-2.427.277-.075.45 1.158.553 2.427.588.859 0 2.353-.138 2.278-.52-.074-.379-1.457-.345-2.278-.345zm2.282-2.289c-1.27-.035-2.503-.173-2.577.277-.076.449 1.232.588 2.577.622.932 0 2.501-.138 2.426-.518-.113-.416-1.568-.347-2.426-.381zm2.615-2.257c-1.083-.035-2.091-.173-2.128.312-.075.449 1.045.587 2.128.622.747 0 2.091-.138 2.017-.518-.075-.381-1.308-.346-2.017-.381v-.035zm-27.601-18.514c-.523 1.003.858 2.281 1.306 2.074.448-.207-.597-1.071-.336-1.66.336-.622 2.615-1.521 2.577-1.867-.038-.346-3.063.519-3.547 1.453zm6.423-4.568a1.581 1.581 0 0 0-1.195-.069c-.747.241-.971 1.003-.56 1.175.41.173.635-.207.784-.276.074 0 .224-.104.448 0 .261.104.261.276.261.311 0 .069 0 .449.374.518.336.07 1.045-1.105-.149-1.625l.037-.034zm4.259 13.964c-.598.552-2.091 0-2.726-.277l-.561-.173c-.484 0-1.082.484-1.157 1.21 0 .103-.262.276-.523.484a1.337 1.337 0 0 1-.223-.588c-.075-.449 0-1.037-.113-1.106-.186-.069-.858 1.037-.448 2.144a4.58 4.58 0 0 1-.522.207c-.113-.138-.374-.587-.374-1.28 0-.345.075-.76.261-1.209.486-1.072 1.867-1.28 2.913-1.453l.859-.172c.485-.173.746-.451.896-.692.449.311.784.588.934.761.261.38.635 1.487.859 2.178h-.075v-.034zm10.568 4.39-1.12.208c-.449.104-1.008.243-1.233.208-.037 0-.074 0-.149-.035.149-.243.448-.692.897-.968.821-.519 1.866-.795 1.605-.899-.374-.174-1.308-.069-1.941.173-.86.311-1.27.864-1.532 1.279-.261-.139-.486-.277-.598-.381.449-.863 1.121-1.452 1.979-1.763 1.196-.449 1.606-.311 1.606-.311.448.069 3.623.588 4.295.588h.038c.149.069.261.172.41.241 1.457.658 3.099.9 3.883.969a5.777 5.777 0 0 1-.336.795c-1.419 0-7.281-.069-7.804 0v-.104zm19.418-8.782c-.671 4.53-3.734 8.92-6.274 10.58-.261.174-.522.589-1.157 1.556-.897 1.418-2.278 3.596-4.07 5.36l-.71.692c-2.689 2.696-5.75 5.739-10.979 5.22-.597-.069-.933-.311-1.083-.76-.485-1.418 1.233-4.738 4.444-7.158 2.576-1.97 4.892-3.423 6.423-4.356l1.905-1.28s.261-.276.373-.449c.037 0 .075-.069.075-.138a3.959 3.959 0 0 0 .597-1.556c0-.104 0-.207-.074-.276-.075-.07-.15-.139-.262-.139 0 0-2.241-.104-3.995-.899-1.307-.622-2.203-1.66-2.838-3.251-.822-2.212.41-3.665 1.642-5.083.934-1.071 1.793-2.109 1.606-3.354 0-.207-.223-.311-.41-.311-.187 0-.3.173-.3.346v.277c0 .864-.709 1.659-1.493 2.559-.934 1.107-2.054 2.42-2.054 4.148 0 .485.112 1.038.299 1.591.374 1.003.859 1.764 1.494 2.387-1.308-.347-3.286-.934-4.967-1.971-.075-.036-.15-.036-.224-.036.224-1.416 0-3.527-.113-4.321 0-.208-.223-.311-.41-.311-.223 0-.336.207-.336.38.298 2.074.298 4.599-.149 4.979l-.785.587-1.904 1.418-1.867 1.418-.56.415c-.448.38-1.755.345-2.502.311h-1.718c.187-.38.299-.76.15-.864-.225-.138-.896.484-1.27.864H32.6c.41-.588.896-1.279 1.121-1.453l.783-.069c.635 0 1.382 0 2.054-.311 1.12-.553 1.27-1.452 1.307-1.763.074-.449-.672-2.696-1.083-3.285-.448-.622-2.426-1.902-3.883-2.213-1.083-.207-2.95.104-4.034.277l-.634.103h-.298c-.449.069-1.457.139-1.943-.207.299-.138.672-.38.859-.726v-.692c-.56-1.451-1.792-1.071-2.315-.933l-.261.069s-.822-.103-1.27-1.003l.709-.345c.187-.104.262-.312.149-.484a.394.394 0 0 0-.485-.139l-.747.381s-.112-.311-.074-.45c.074-.311.299-.554.747-.726a.33.33 0 0 0 .224-.208s.41-1.071 3.062-2.385l1.568-.796c2.166-1.106 3.883-1.971 5.117-2.213l4.144-.483 1.27-.553c1.27-.623 3.174-1.556 5.452-1.971.186-.069 11.912-4.634 20.128 4.563 2.315 2.593 3.248 5.809 2.725 9.336l-.149.104zm-49.48 23.075c.112-.172.223-.38.336-.553a20.847 20.847 0 0 1-2.203-1.383c-.113.173-.225.415-.336.588.186.103.373.241.522.346-.784 1.486-1.493 2.904-2.278 4.425a156.09 156.09 0 0 1-.559-.311c-.113.173-.187.381-.3.553a44.79 44.79 0 0 0 3.735 2.144c.373-.415.709-.864 1.083-1.28v-.069c-.187-.173-.374-.311-.561-.484-.261.277-.635.658-.97.831-.411-.138-1.12-.485-1.456-.831 0-.38 1.68-3.319 2.24-4.356.186 0 .523.242.709.346l.038.034zm-5.826.38c.299-.518.598-1.002.896-1.521-.149-.138-.298-.242-.485-.38-.112.138-.186.276-.299.414-.074.035-.822-.552-1.009-.656.337-.588.673-1.245 1.047-1.867.336.242 1.083.726 1.232 1.037.112.242-.225.692-.261.968 0 .173.41.277.56.38.262-.484.523-1.036.784-1.52-1.121-.796-2.24-1.66-3.362-2.49l-.335.518c.15.138.335.277.486.416-.86 1.521-1.494 2.765-2.353 4.287-.149-.104-.336-.242-.485-.346a3.543 3.543 0 0 0-.299.519 40.017 40.017 0 0 0 3.36 2.593c.336-.415.673-.899.971-1.314v-.069l-.523-.484c-.112.173-.635.795-.746.795-.224 0-1.158-.795-1.344-1.038 0-.345.784-1.485.97-1.867.298.243.747.485.933.761-.036.173-.148.38-.223.553.149.104.336.242.485.346v-.035zm19.755 5.464c-1.606-.83-3.362-1.522-5.042-2.248-.298.484-.559 1.003-.858 1.487.223.104.448.242.671.346l.673-.831c.298 0 .858.209 1.232.347-.709 1.451-1.493 3.042-2.203 4.529-.261-.069-.486-.173-.747-.276-.113.172-.187.345-.299.552.859.347 1.756.727 2.614 1.073.112-.173.187-.38.261-.553a7.21 7.21 0 0 1-.746-.347c.71-1.486 1.531-3.042 2.241-4.529.373.173.858.415 1.008.657-.113.311-.224.623-.374.899.075.104.56.242.747.311.262-.483.561-1.003.822-1.487v.07zm-5.826-2.559c-.709-.345-1.419-.657-2.128-1.003-.075.173-.187.346-.299.519.224.139.485.242.709.381-.746 1.487-1.942 4.874-3.584 3.872-1.158-.727-.747-1.591-.076-2.836.374-.691.785-1.521 1.158-2.213.262.104.486.208.747.346.075-.173.187-.346.262-.518-.785-.38-1.568-.76-2.352-1.142-.113.174-.187.347-.299.52.148.069.335.173.484.242 0 .311-.559 1.175-.709 1.487-.784 1.52-1.568 2.731-.821 3.803.187.276.448.484.746.691a3.255 3.255 0 0 0 1.457.519c1.904.172 2.8-2.248 3.847-4.322.186.069.335.138.522.207.075-.173.187-.345.262-.553h.074zm-16.132-8.851s.261.207.411.345c.075-.207.186-.38.262-.587-.561-.485-1.121-1.003-1.682-1.487-.074.207-.223.38-.336.552.151.173.412.346.598.52-.523.587-2.577 2.627-2.726 2.766-.074-.139.709-4.357.859-4.738.186.174.373.381.56.589.112-.173.225-.346.336-.52a19.584 19.584 0 0 1-1.681-2.109c-.148.173-.261.346-.41.485.113.173.224.311.298.484-.149.553-1.045 5.878-1.082 6.43.187.243.373.485.56.693 1.121-.761 3.622-3.078 4.033-3.458v.035zm59.45 11.997c.038-.933.149-1.728.299-2.662l.037-.034c.373.76.672 1.383 1.083 2.109-.448.207-.934.414-1.381.587h-.038zm5.265-.622c0 .242.224.761.149.934-.111.207-1.568.933-1.829.933-.337-.553-.56-1.21-.86-1.764.337-.172 1.345-.656 1.532-.656.074.138.186.311.299.484.187-.104.41-.208.635-.277-.261-.553-.523-1.141-.784-1.694-.225.104-.412.173-.599.277.038.172.113.345.15.552-.15.209-1.195.658-1.494.796-.374-.725-.672-1.418-1.045-2.143.486-.208 1.306-.692 1.793-.762.223.139.485.52.634.762.187-.104.373-.208.597-.346 0-.138-.635-1.141-.746-1.383-1.233.587-2.763 1.314-3.959 1.832-.186 2.109-.41 4.218-.596 6.293-.187.069-.338.207-.524.311.075.174.186.381.261.554.711-.242 1.382-.589 2.092-.865-.075-.173-.187-.38-.262-.553-.224.069-.448.173-.709.276 0-.691.074-1.521.074-2.212.523-.242 1.158-.484 1.681-.727.299.554.56 1.279.896 1.833-.224.104-.448.208-.635.312.112.172.187.345.299.552 1.345-.587 2.95-1.314 4.257-1.936-.149-.484-.298-1.003-.485-1.487-.225.069-.486.139-.709.207l-.113-.103zm4.892-7.192.448-.311c-.112-.173-.186-.346-.299-.518-.671.414-1.306.829-1.979 1.245.112.172.187.345.299.518.224-.138.448-.242.671-.38.188.864.487 3.422.524 4.011 0 .241.037.483.075.691-.149.034-.673-.588-.784-.726l-1.644-1.729c-.223-.242-.522-.518-.747-.796.262-.138.486-.276.747-.414-.074-.173-.149-.38-.223-.553-.822.449-1.68.864-2.502 1.314.074.207.149.38.223.553.187-.069.374-.173.523-.242.299.346.709.691 1.046 1.002.746.727 1.531 1.453 2.278 2.213l.971.899c.261-.138.56-.311.821-.449-.112-1.452-.186-2.94-.299-4.392-.037-.587-.074-1.348-.149-1.936zm-18.596 30.082v-2.42c.372 0 .746-.035 1.045.069.709.276 1.083 1.21.56 1.902-.299.38-.896.449-1.605.449zm2.987 1.902c-.262-.45-.672-1.453-1.195-1.626v-.069c1.157-.276 1.904-1.901.747-2.731-.897-.658-2.726-.485-4.295-.485v.554c.225 0 .448.035.635.035v4.805c-.224 0-.41 0-.635.035v.554h2.502v-.589h-.71v-1.832c.299 0 .599-.035.822.034.635.243.971 1.936 1.494 2.387.112.104 1.382 0 1.643 0v-.589c-.187 0-.411 0-.597-.034-.187-.069-.262-.346-.374-.519l-.037.07zm-15.162-.242c-.149.518-.597.725-1.194.829-.299.034-.747 0-.86-.138-.074-.104-.074-.346-.074-.519 0-.276-.037-1.487.038-1.625 1.119 0 2.352.311 2.053 1.418l.037.035zm-2.09-4.08c.709 0 1.27 0 1.606.415.111.172.223.449.186.691-.15.761-.785 1.003-1.792.968v-2.074zm1.792 2.247h-.038v-.069c1.158-.415 1.755-1.798.412-2.489-.896-.451-2.727-.278-4.033-.242v.587h.671v4.84c-.223 0-.448 0-.671.035v.554c1.493 0 3.322.173 4.293-.347.673-.38 1.308-1.347.673-2.178-.336-.449-.71-.484-1.27-.691h-.037zm-8.551.173v-2.42c.336 0 .746-.035 1.045.069.709.276 1.12 1.21.56 1.902-.336.38-.896.449-1.605.449zm2.987 1.902c-.262-.45-.672-1.453-1.195-1.626v-.069c1.158-.276 1.904-1.901.747-2.731-.897-.658-2.726-.485-4.295-.485v.554c.225 0 .411.035.635.035v4.805c-.224 0-.41 0-.635.035v.554h2.502v-.589h-.746v-1.832c.298 0 .597-.035.82.034.635.243.972 1.936 1.495 2.387.111.104 1.381 0 1.606 0v-.589s-.412 0-.598-.034c-.224-.069-.262-.346-.373-.519l.037.07zm-10.083-1.177c.299-.829.598-1.658.896-2.489h.075l.859 2.489h-1.83zm1.606-3.803c-.224-.069-.71-.034-.933 0a241.19 241.19 0 0 0-2.204 5.463c-.149.069-.411.069-.56.069v.589h2.316v-.589h-.748c.113-.345.225-.725.374-1.071h2.241c.187.277.373.76.41 1.106h-.672v.589h2.502v-.589h-.56c-.673-1.832-1.382-3.665-2.054-5.532l-.112-.035zm51.085-24.964c-1.381 1.038-2.876-.588-3.249-2.109-.187-.726-.187-1.487.262-2.04.149-.104.26-.242.41-.346.336-.207.635-.311.934-.311 1.643.07 3.286 3.562 1.643 4.84v-.034zm.561-4.978c-.897-.796-1.942-.9-3.399-.104-.224.173-.448.346-.635.553-.597.622-.859 1.349-.934 2.143 0 .311 0 .693.112 1.004.075.38.374 1.002.598 1.313.896 1.176 1.942 1.521 3.398.968 2.427-.899 2.652-4.287.86-5.877zM54.22 204.362c-1.717.278-2.39-1.763-2.054-3.283.15-.727.524-1.384 1.159-1.626.149-.034.335-.069.521-.103.411 0 .747 0 1.009.173 1.493.829 1.456 4.529-.635 4.839zm-.336-5.635c-.262.069-.559.103-.822.139a2.996 2.996 0 0 0-1.793 1.417c-.148.242-.261.588-.335.899-.075.38-.075.968 0 1.348.299 1.452 1.083 2.214 2.688 2.456 2.615.38 4.295-2.351 3.361-4.565-.448-1.106-1.381-1.694-3.061-1.694h-.038zm39.061-38.59-1.345-2.664-1.83-3.561c-1.456-2.593-3.696-4.114-6.423-4.356 6.087-9.855 10.456-21.714 10.456-35.476V70.756c0-.278-.261-.485-.56-.485H.708c-.299 0-.523.207-.523.485v43.324c0 13.762 4.406 25.621 10.455 35.476-2.688.276-4.966 1.798-6.385 4.356l-1.829 3.561-1.345 2.629c-1.195 2.316-2.465 7.019 2.503 12.828 4.032 4.701 12.509 9.715 22.704 13.449l.485.174c.859.311 1.718.622 2.502.933-.822.762-2.016 1.66-2.913 2.351l-.822.623a7.756 7.756 0 0 0-.56.484h-.075a.701.701 0 0 0-.148.207c-.859.865-1.345 1.867-1.345 3.596v8.299c0 3.423 5.116 4.598 9.934 4.598h27.297c4.817 0 9.933-1.209 9.933-4.598v-8.299c0-1.729-.485-2.731-1.344-3.561-.075-.069-.112-.138-.187-.207h-.074c-.187-.139-.374-.311-.561-.45l-.822-.623c-.932-.691-2.09-1.589-2.95-2.35a62.16 62.16 0 0 1 2.54-.934l.448-.172c10.194-3.736 18.671-8.749 22.705-13.451 4.966-5.809 3.697-10.512 2.502-12.828l.112-.034zm-6.013-7.296c1.195 1.832 1.232 4.218.075 6.741a10.74 10.74 0 0 1-.71 1.28l-3.286-4.425s-.336-.242-.522-.207c-.187 0-.374.172-.449.345-.261.795-1.008 1.453-2.016 1.867-1.046.38-2.166.415-3.1.104 2.017-2.49 3.997-5.187 5.789-8.057.186 0 .336 0 .523.034 1.419.104 2.8.969 3.66 2.283l.036.035zm-29.351 42.632.598.554H35.81l.597-.554c1.308-1.106 2.428-2.074 2.428-4.702v-5.912c0-5.775-5.34-8.022-11.54-10.651-2.165-.933-4.406-1.867-6.608-3.042-2.018-1.072-4.855-2.766-7.47-4.806l4.893-6.569c13.032 15.49 28.38 23.788 28.641 23.927a.687.687 0 0 0 .523 0c.261-.139 15.647-8.437 28.679-23.962l4.893 6.569a56.664 56.664 0 0 1-7.469 4.807c-2.241 1.175-4.444 2.109-6.61 3.042-6.199 2.628-11.539 4.875-11.539 10.65v5.913c0 2.592 1.12 3.561 2.428 4.701l-.075.035zm-45.26-29.735c-1.53-1.245-2.949-2.594-3.996-3.942.635-.83 2.502-3.319 3.063-4.115a4.382 4.382 0 0 0 2.166 1.729c1.082.416 2.24.485 3.286.312l-4.519 6.05v-.034zm64.79-6.051c1.046.208 2.204.104 3.286-.312.972-.38 1.643-1.002 2.129-1.729.597.796 2.465 3.285 3.062 4.116-1.046 1.347-2.465 2.696-3.996 3.941l-4.518-6.051.037.035zM1.231 71.274H92.72v32.26H1.231v-32.26zm5.826 81.567c.858-1.314 2.202-2.145 3.621-2.283h.523a87.864 87.864 0 0 0 5.788 8.057 4.7 4.7 0 0 1-3.062-.138c-1.046-.38-1.755-1.072-2.017-1.867-.037-.173-.223-.311-.448-.346-.187 0-.41.069-.522.207l-3.286 4.426c-.262-.449-.523-.864-.71-1.28-1.121-2.524-1.121-4.944.075-6.742l.038-.034zm20.089 32.778-.484-.172c-10.046-3.666-18.337-8.576-22.258-13.14-4.369-5.082-3.696-9.198-2.389-11.756l1.344-2.663 1.793-3.527s.036-.069.074-.069c-.336 1.418-.374 3.32.709 5.672 2.054 4.494 8.888 9.301 14.153 12.066 2.279 1.176 4.52 2.144 6.685 3.078 6.087 2.593 10.904 4.634 10.904 9.751v5.912c0 .588-.074 1.038-.187 1.453-.149-.623-.486-1.245-.934-1.764-2.052-2.143-5.489-3.388-9.446-4.841h.036zm-1.792 6.397s.038-.069.074-.103v-.069c.225-.209.486-.451.747-.658l.822-.622c1.12-.831 2.427-1.833 3.286-2.697 2.278.934 4.183 1.901 5.453 3.215.97 1.004.97 2.593.335 3.147 0 0-.335.277-.485.449l-1.344 1.28h-.934c-4.444.035-7.432-1.383-8.067-2.836-.185-.414-.149-.795.076-1.14l.037.034zm44.102 1.971c0 .242.037.484.037.726v8.299c0 2.661-4.779 3.63-8.85 3.63H33.346c-4.071 0-8.851-.934-8.851-3.63v-8.299c0-.277 0-.518.037-.726 1.046 1.555 4.108 3.042 8.814 3.008h27.297c4.705 0 7.73-1.453 8.813-3.008zm-2.502-3.354.784.587c.299.208.523.415.747.658l.037.035c0 .034.037.069.075.103.224.346.261.726.075 1.141-.635 1.418-3.622 2.87-8.066 2.836h-.972l-1.343-1.28-.486-.45c-.635-.587-.597-2.177.336-3.146 1.27-1.314 3.174-2.282 5.452-3.216.86.865 2.203 1.867 3.324 2.698l.037.034zm22.593-18.292c-3.921 4.565-12.212 9.475-22.256 13.14l-.487.173c-3.957 1.452-7.393 2.697-9.447 4.841-.485.484-.784 1.106-.934 1.763-.112-.414-.149-.865-.149-1.452v-5.912c0-5.118 4.817-7.158 10.904-9.752 2.165-.934 4.444-1.901 6.721-3.077 5.266-2.766 12.1-7.572 14.116-12.067 1.083-2.386 1.083-4.288.71-5.671 0 0 0 .069.037.069l1.793 3.528 1.343 2.662c1.345 2.558 1.98 6.639-2.389 11.755h.038zm869.822-84.238c0 10.406 8.664 18.532 19.717 18.532 11.055 0 20.912-8.506 20.912-18.532 0-8.956-7.618-18.188-20.351-18.188-10.829 0-20.315 8.506-20.315 18.188h.037zm6.798-2.871c0-6.188 4.031-12.482 11.651-12.482 9.597 0 15.345 9.544 15.345 18.74 0 5.914-4.405 12.31-11.462 12.31-9.746 0-15.534-9.439-15.534-18.568zm-12.735-15.594h-1.231l-.077.104c-.186.242-.56.657-2.574.761l-7.769.069h-10.866l-8.478-.069c-2.017-.104-2.39-.519-2.576-.761l-.112-.104h-1.419l-.075.207c-.186.347-2.837 6.674-2.911 7.054l-.078.209 1.795 1.002.149-.311c1.193-2.94 2.502-4.323 9.26-4.323 2.168 0 3.96.139 5.191.243.411 4.805.485 9.439.485 12.931 0 3.493-.111 13.277-.485 15.386-.148.762-.412 1.28-3.698 1.798l-2.388.278-.935.104.412 1.97 3.211-.207h.898l6.234-.207H939.801l2.651.103 2.766.069v-.276l.26-1.763-1.718-.174h-.411c-1.642-.242-2.837-.588-3.285-1.003-.411-.449-1.157-2.732-1.157-12.967l.185-7.294.223-8.333c0-.727.003-.762 3.548-.762h2.689c6.237 0 6.723 1.211 7.806 3.839l.334.83 1.795-.968-.45-1.903c-.597-2.765-1.119-5.117-1.267-5.394l-.115-.207h-.185l-.038.069zm-56.575.52s3.101.207 4.035.241c.932.069 3.883.104 8.029.104h.297v1.902h-.297c-2.129 0-4.335.415-4.669 2.8-.263 1.383-.523 12.517-.523 17.289 0 3.215 0 10.615.223 13.45v.346l-2.463.034-.075-.103-27.633-26.624c0 .829-.075 2.074-.075 2.074l-.226 14.661c-.074 5.775-.074 6.5 7.209 7.711h.26v2.074s-2.986-.207-3.023-.207l-4.297-.173-8.922.38v-1.867s2.425-.485 2.499-.485c1.383-.242 2.205-.414 2.466-2.42.263-1.97.56-8.955.56-11.237l.112-6.155c.188-10.061-.635-10.581-5.938-11.514h-.26V70.33l2.689.208 2.837.069 4.257-.069.112.103s26.028 25.137 26.551 25.656c0-.968-.074-9.508-.074-9.508-.189-14.142.971-14.281-6.423-14.695h-.337l.374-1.798c.223-.138 2.689-.104 2.689-.104l.036-.034zm-59.674-.243c12.735 0 20.314 9.267 20.314 18.188 0 10.061-9.56 18.532-20.911 18.532s-19.717-8.16-19.717-18.532c0-9.682 9.486-18.188 20.314-18.188zm2.055 33.885c7.094 0 11.465-6.396 11.465-12.31 0-9.231-5.752-18.74-15.348-18.74-7.658 0-11.689 6.294-11.689 12.482 0 9.129 5.788 18.568 15.534 18.568h.038zM791.7 70.192c8.103 0 13.743 3.976 13.743 9.681 0 4.634-4.369 7.745-8.589 8.852 7.729 10.096 9.186 11.617 12.249 14.246.075.103 2.538 2.247 5.6 2.419h.3l-.151 1.902h-.298c-6.722 0-10.045-2.351-11.914-3.63-5.863-4.184-11.648-12.379-12.732-14.108-.337 0-4.033-.138-4.63-.138v6.328c0 2.42.073 5.878.634 6.915.411.692 3.474 1.522 5.154 1.937l.186.069.149 1.867-.409-.069c-2.318-.346-5.938-.622-8.477-.622-1.309 0-7.283.345-8.552.414h-.263l-.449-1.59.375-.069c.785-.104 3.96-.831 4.668-2.109.598-1.107.561-7.33.561-9.993v-9.163c0-10.65-.486-10.65-5.118-10.926h-.334l.149-2.075h.56s3.397.208 3.434.208l3.548.069c.86 0 3.101-.173 5.266-.346l5.267-.173.073.104zm-6.236 16.631c1.119.138 2.802.138 3.807.138 3.475 0 9.263-.863 9.263-6.639 0-3.076-2.428-7.606-9.148-7.606-3.735 0-3.735.104-3.849 6.05 0 0-.073 7.573-.073 8.092v-.035zm-39.51-16.908c12.734 0 20.315 9.267 20.315 18.188 0 10.061-9.598 18.532-20.912 18.532-11.315 0-19.754-8.16-19.754-18.532 0-9.682 9.486-18.188 20.351-18.188zm2.018 33.885c7.093 0 11.466-6.396 11.466-12.31 0-9.231-5.752-18.74-15.312-18.74-7.695 0-11.651 6.294-11.651 12.482 0 9.129 5.788 18.568 15.533 18.568h-.036zm-28.306-34.162h-1.232l-.111.104c-.189.242-.563.657-2.577.761l-7.732.069h-10.865l-8.477-.069c-2.018-.104-2.352-.519-2.578-.761l-.111-.104h-1.457l-.074.207c-.149.347-2.8 6.674-2.912 7.054v.209l1.717 1.002.112-.311c1.231-2.94 2.539-4.323 9.259-4.323 2.167 0 3.96.139 5.229.243.412 4.805.448 9.439.448 12.931 0 3.493-.111 13.277-.485 15.386-.149.762-.411 1.28-3.697 1.798l-2.389.278-.934.104.412 1.97 3.173-.207h.894l6.238-.207h4.443l2.614.103 2.763.069v-.276l.3-1.763-1.755-.174h-.411c-1.642-.242-2.837-.588-3.323-1.003-.411-.449-1.156-2.732-1.156-12.967l.185-7.294.186-8.333c0-.727 0-.762 3.549-.762H711.563c6.274 0 6.76 1.211 7.803 3.839l.337.83 1.755-.968-.446-1.903c-.601-2.765-1.123-5.117-1.272-5.394l-.074-.207h-.223l.223.069zm-71.661.52c-5.603.518-6.871.518-13.109.518l-6.571-.069-6.796-.173-2.241.104-1.717.173V72.232h.297c1.72.104 3.326.242 4.034 1.175 1.009 1.383 1.083 2.801 1.083 15.283 0 5.878-.56 12.517-.786 13.52-.333 1.382-2.425 1.867-3.994 2.109h-.262l-.112 1.936h.374c3.809-.276 7.954-.38 9.037-.38l3.361.069 6.237.277v-2.075h-.449c-4.443-.415-5.937-1.141-6.385-1.659-.486-.52-.672-2.663-.672-4.876V95.64s.149-5.256.186-6.501c.486 0 3.174-.172 3.174-.172 3.475 0 7.843.725 8.962 1.176.598.173 1.121 1.313 1.344 2.903v.242h1.942v-.276c.375-3.665.337-7.296.226-10.027v-.276h-2.054v.242c-.522 2.592-.712 3.665-8.218 3.665-2.239 0-2.985-.069-5.114-.311h-.151c-.075-.623-.075-1.28-.075-2.04 0-.796 0-1.66.038-2.525 0 0 .115-7.33.115-8.471 2.165-.242 4.068-.311 4.628-.311 4.182 0 7.88.692 9.375 1.763 1.194.831 1.68 2.247 2.017 3.458l.074.242 2.128-.104v-.311c-.074-.553.074-2.489.186-4.218l.223-3.735h-.372l.037.105zm-58.628-.278c12.734 0 20.314 9.267 20.314 18.188 0 10.061-9.598 18.533-20.912 18.533-11.314 0-19.753-8.161-19.753-18.533 0-9.682 9.485-18.188 20.351-18.188zm2.017 33.885c7.095 0 11.463-6.396 11.463-12.309 0-9.232-5.712-18.74-15.309-18.74-7.695 0-11.688 6.293-11.688 12.482 0 9.128 5.825 18.567 15.534 18.567zm-72.146-33.158v1.763h.446c1.943.104 4.594.207 4.594 1.625 0 .415-.82 2.489-8.14 12.206-3.138-3.458-10.083-11.653-10.083-12.725 0-.38 0-.829 4.406-.933h.337v-2.075l-3.698.07-7.094.103-7.657-.069v1.902h.3c1.94 0 3.063.207 3.957.829 2.354 1.522 10.606 11.204 10.943 11.618 0 0 3.323 3.942 3.62 4.322.189 2.525.375 5.325.375 8.748 0 5.291 0 6.397-5.378 6.57h-.297l-.114 1.763h.3c.783.07 3.286-.103 5.677-.241l4.105-.242 3.101.138h.635l4.219.207v-1.798h-.297c-5.266-.449-5.34-1.072-5.417-2.005v-.347a143.257 143.257 0 0 1-.186-7.261c0-2.005 0-4.114.112-6.327.114-.138 7.579-10.615 7.579-10.615 2.392-3.388 1.795-5.256 7.024-5.359h.297v-2.04h-.297c-.675-.069-.861 0-2.689.104l-2.503.103-2.952-.138-2.05-.104-2.878-.103h-.334v.311h.037zm-34.206-1.003h-1.234l-.075.103c-.186.242-.559.658-2.576.761l-7.767.07h-10.868l-8.478-.07c-2.014-.103-2.351-.519-2.573-.761l-.074-.103h-1.421l-.074.207c-.189.347-2.803 6.673-2.915 7.054l-.074.208 1.792 1.002.152-.311c1.194-2.939 2.5-4.323 9.259-4.323 2.166 0 3.96.14 5.191.243.412 4.806.486 9.439.486 12.932 0 3.492-.111 13.277-.486 15.386-.147.761-.411 1.28-3.697 1.798l-2.391.277-.932.104.41 1.971 3.211-.208h.86l6.237-.207h4.406l2.614.104 2.8.069v-.277l.299-1.763-1.757-.174h-.408c-1.642-.242-2.84-.587-3.326-1.002-.408-.449-1.156-2.732-1.156-12.967l.188-7.295.223-8.333c0-.727 0-.761 3.511-.761h2.689c6.271 0 6.756 1.21 7.803 3.839l.337.829 1.791-.969-.448-1.901c-.597-2.766-1.121-5.118-1.269-5.394l-.074-.208h-.226l.04.07zm-64.565 1.072v1.763h.297c5.042.173 5.862 1.142 6.274 2.075.708 1.556.859 11.618.859 15.352v.622c0 3.043 0 10.201-1.008 11.826-.337.553-1.643 1.52-6.611 1.867h-.297v1.833l6.123-.173h5.602l9.334.276v-.311l-.148-1.66h-.3c-4.069 0-5.414-.069-5.9-1.521-.223-.761-.372-4.116-.372-9.993 0-13.831.075-17.462.932-18.809 1.009-1.522 4.632-1.349 5.677-1.246h.375v-2.074h-4.595l-6.46.173-4.257-.104-1.829-.069-3.363-.104h-.333v.312-.035zm-34.246 9.474c0 6.051 5.639 8.16 9.711 9.682l.334.138c7.02 2.627 10.231 3.803 10.231 8.263 0 2.629-2.128 5.429-6.831 5.429-4.146 0-7.171-1.626-9-2.973-2.166-1.695-2.763-4.219-2.952-5.049l-.073-.242h-2.316l.113.38c1.268 3.907 1.717 5.671 1.605 10.063v.276l1.905.104.113-.207c.073-.208.411-.866.856-.866.449 0 1.795.312 2.354.451l.26.069.561.138c.971.277 2.317.657 4.743.657 9.449 0 14.525-5.256 14.525-10.201 0-6.95-7.505-9.681-12.434-11.479-4.706-1.66-8.252-3.181-8.252-6.708s2.875-5.774 7.206-5.774c3.883 0 6.649 1.971 7.321 2.662 1.567 1.314 1.942 2.905 2.314 4.392v.242l.337.069h1.717l-.523-4.634c0-1.66.375-3.458.597-4.183l.075-.311-1.717-.242s-1.047.656-1.233.76c-3.51-.864-5.302-1.107-7.768-1.107-8.102 0-13.739 4.185-13.739 10.131l-.04.07zm-27.335-10.027c8.102 0 13.742 3.976 13.742 9.681 0 4.634-4.368 7.745-8.588 8.852 7.766 10.097 9.186 11.617 12.286 14.245.075.104 2.54 2.247 5.6 2.455h.337l-.149 1.901h-.299c-6.72 0-10.046-2.35-11.874-3.63-5.901-4.183-11.652-12.379-12.772-14.107-.3 0-4.034-.139-4.595-.139v6.363c0 2.42.078 5.878.637 6.915.409.692 3.472 1.522 5.115 1.937l.225.069.111 1.867-.373-.069c-2.314-.346-5.937-.622-8.477-.622-1.344 0-7.281.345-8.589.414h-.26l-.449-1.59.335-.069c.785-.104 3.922-.831 4.668-2.109.597-1.107.561-7.33.561-9.993v-9.163c0-10.65-.486-10.65-5.115-10.926h-.337l.148-2.075h.598l3.399.208 3.546.069c.86 0 3.101-.173 5.266-.346l5.265-.173.038.035zm-6.274 16.631c1.16.138 2.802.138 3.849.138 3.47 0 9.259-.864 9.259-6.639 0-3.076-2.428-7.606-9.148-7.606-3.734 0-3.734.103-3.847 6.05 0 0-.073 7.573-.073 8.092l-.04-.035zM328.91 70.296c-4.743.276-12.249.345-17.177.345-3.026 0-10.569-.173-13.331-.242h-.338v1.764h.263c3.286.553 3.509.622 3.698 1.313.333.83.783 4.046.783 14.765 0 4.598-.375 11.825-.858 14.28-.225 1.21-1.869 1.591-4.446 1.833h-.334l.297 2.005h.3c5.188-.553 11.5-.553 15.235-.553l15.459.173.152-.207c.82-1.176 2.014-2.974 2.874-8.645l.074-.312-1.866-.138-.076.208c-1.306 3.25-3.92 6.604-13.331 6.604-3.324 0-4.741-.415-6.572-1.037-.186-1.003-.374-2.49-.449-6.846 0 0-.074-5.29-.111-6.501 2.502-.311 4.78-.311 5.788-.311 7.543 0 8.14.553 9.149 4.806l.074.242h1.832v-.311c-.115-4.668-.115-5.775.186-10.684v-.311h-2.018l-.074.207c-.746 2.593-1.343 3.111-2.429 3.25-5.525.657-10.902.45-12.209.381 0-.45-.188-4.668-.188-4.668 0-2.282.226-5.774.634-8.265 2.018-.345 5.826-.656 7.432-.656 4.295 0 6.797.518 7.918 1.59.934.899.934 2.213.859 3.735v.276l2.165.277v-.346c0-.38.261-1.798.449-2.835l.223-1.314c.3-1.832.3-2.732.3-3.596v-.311h-.337v.035zm-83.722.415.111 1.555h.262c5.19.622 5.377.657 9.597 8.541l8.701 16.251.074.138c1.457 2.835 3.698 7.089 4.444 9.543v.207h1.979l.075-.207c1.308-3.527 2.278-5.981 5.303-11.513l9.373-16.874c2.166-3.977 3.1-4.98 7.32-5.775h.26v-1.97h-.335a81.576 81.576 0 0 1-7.133 0l-7.356-.173v.277l-.149 1.832h.335c1.942 0 4.519.207 4.519 2.109 0 1.072-.859 2.801-1.381 3.907l-.15.312c-1.942 3.942-3.138 6.12-4.406 8.436l-4.257 8.057s-.635 1.278-1.009 2.005c-4.22-6.224-11.875-22.89-11.912-23.893 0-.415.111-.484 3.248-.829l1.009-.139v-1.936h-9.112c-2.241 0-6.759-.069-9.037-.242h-.373v.381zm-26.104 0v1.763h.337c5.041.173 5.863 1.141 6.273 2.074.71 1.556.86 11.618.86 15.353v.622c0 3.043 0 10.2-1.046 11.825-.336.553-1.643 1.522-6.609 1.868h-.3v1.832l6.124-.173h5.602l9.336.277v-.311l-.15-1.66h-.298c-4.071 0-5.378-.069-5.863-1.522-.262-.761-.373-4.115-.373-9.993 0-13.83.074-17.461.933-18.809 1.009-1.521 4.594-1.349 5.676-1.245h.373v-2.074h-4.592l-6.461.173-4.257-.104-1.829-.069-3.399-.104h-.337v.311-.034zm-19.38-.588s3.137.207 4.07.242c.934.069 3.884.103 8.029.103h.299v1.902h-.299c-2.129 0-4.331.415-4.667 2.8-.262 1.384-.486 12.517-.486 17.289 0 3.216 0 10.615.187 13.451v.345l-2.428.035-.112-.104-27.596-26.624c0 .829-.075 2.074-.075 2.074l-.187 14.661c-.074 5.774-.112 6.501 7.207 7.711h.262v2.075s-2.987-.208-3.025-.208l-4.257-.172-8.925.38v-1.867s2.465-.485 2.502-.485c1.382-.242 2.203-.415 2.465-2.42.262-1.971.56-8.956.56-11.238l.074-6.155c.225-10.061-.597-10.58-5.899-11.513h-.263v-1.764l-.074-.345 2.727.207 2.838.069 4.256-.069.113.104s26.028 25.137 26.55 25.655c.037-.967-.074-9.508-.074-9.508-.187-14.142.971-14.28-6.423-14.695h-.374l.411-1.798c.186-.138 2.652-.103 2.652-.103l-.038-.035zm-65.574.276h.336v2.04h-.298c-5.975.519-6.461.553-6.461 12.863v6.604c0 3.803 0 11.79 10.867 11.79 11.949 0 12.846-7.157 12.846-18.913v-3.112c0-2.351-.336-7.123-1.532-8.23-.858-.76-2.763-.864-4.704-.864h-.336v-2.074l2.277.069 5.191.104 6.721-.138h.86l-.149 1.936h-.299c-4.482.242-4.519 1.28-4.594 3.769v.241l-.111 5.118c-.262 16.977-1.158 25.137-17.814 25.137-10.53 0-16.056-4.218-16.056-12.206l.484-11.548c0-5.394-.522-9.474-1.306-9.924-.597-.38-1.419-.38-3.959-.38h-.298l-.149-1.936h.298c.784-.104 6.087-.207 8.738-.207h2.241c2.428-.104 5.75-.139 7.245-.104l-.038-.035zm263.792 73.303c1.194.07 2.24.139 3.174.139 4.071 0 4.071-.381 4.109-1.936h.931c0 .553.078 1.279.078 2.247 0 1.106-.078 2.213-.115 3.008h-.894c-.078-1.729-.078-1.867-1.98-2.109-1.532-.173-2.875-.242-5.266-.173l-.074 4.08v1.383c0 2.143 0 2.732 3.359 3.009v.76c-1.493-.069-3.022-.069-4.59-.069-1.198 0-3.101 0-4.484.069v-.726c.786-.138 1.644-.345 1.906-1.107.448-1.347.448-5.947.448-7.641 0-1.521 0-7.088-.485-7.952-.375-.692-1.458-.796-2.203-.83v-.726c.634 0 2.5 0 4.368.103 1.903 0 3.809.07 4.481.07 4.891 0 5.64 0 7.093-.208-.148 1.037-.222 1.729-.259 3.942h-.86c-.148-.969-.186-1.625-.634-1.867-1.12-.761-4.032-.865-5.415-.865-.934 0-1.569 0-2.614.104-.111.83-.111 2.351-.111 3.25l-.075 4.115.112-.07zm-248.892 7.176c-.374.863-1.232 2.731-1.232 3.457 0 1.729 2.426 2.04 3.883 2.213v1.073c-.373 0-1.867-.035-3.36-.105-1.494-.035-2.838-.104-2.951-.104-.597 0-2.763 0-3.547.035v-.933c.822-.139 2.091-.381 3.061-1.833 1.793-2.628 10.607-22.683 11.241-24.308.522-1.175.821-2.04 1.121-2.869h1.306c.299.933.598 1.971 1.233 3.527 1.083 2.765 6.161 14.937 7.17 17.46 2.95 7.608 3.808 7.746 5.862 8.023v.933c-.56-.035-1.157-.104-1.867-.139-.709-.034-1.531-.034-2.614-.034-3.174 0-5.563.242-7.133.347v-1.073c1.308-.173 2.54-.657 2.54-1.729 0-.656-2.502-6.846-2.763-7.503-.934-.103-1.494-.138-3.66-.138-1.867 0-4.331 0-6.759.346l-1.531 3.388v-.034zm53.551 5.593c-4.781 1.245-9.411 1.314-9.971 1.314-9.896 0-17.327-6.362-17.327-15.248 0-10.235 8.925-15.145 18.373-15.145 2.09 0 4.033.242 6.273 1.037.56.208 1.568.519 2.091.519.523 0 .934-.173 1.382-.38l.672.172c-.187.9-1.27 5.36-1.493 6.432l-.822-.207c-.262-1.971-.299-2.594-1.009-3.251-.709-.761-3.734-2.697-8.14-2.697-11.314 0-11.314 10.788-11.314 13.243 0 12.932 10.081 13.865 12.06 13.865 4.482 0 8.253-2.178 9.673-6.223l1.157.138c-.037.656-.037 1.038-.411 2.212a123.78 123.78 0 0 0-.672 2.214l-.56 1.936.038.069zm11.24-22.001c-.111-5.013-.746-5.047-3.622-5.29v-1.071h13.592l.299 1.071s-.56.035-.821.104c-4.108.623-4.369.726-4.369 12.586 0 8.195.672 10.407 2.689 11.929 2.128 1.59 4.891 1.901 6.572 1.901.859 0 7.245-.034 9.075-4.425 1.12-2.732 1.419-8.057 1.419-13.9 0-7.676-.971-7.745-4.333-7.918l-.186-1.314 2.763-.103c.747 0 1.681.103 2.689.103h5.004v1.314c-1.121.035-2.614.104-2.988 1.003-.373.795-.373 5.705-.373 6.95-.037 4.114-.56 12.413-2.128 15.559-2.128 4.253-8.814 4.91-12.697 4.91-4.743 0-12.696-1.037-12.696-9.302 0-1.209.261-7.295.261-8.677l-.15-5.395v-.035zm62.732 16.775c-.187 1.522-.262 1.832-1.98 6.603-1.119-.172-1.978-.345-3.398-.415-1.418-.103-3.473-.138-6.946-.138h-14.152l-.112-1.176c.859-.103 2.203-.38 2.838-1.14.859-1.003.859-1.452.933-12.966 0-8.713 0-9.509-.149-10.719-.261-1.971-1.718-2.11-3.211-2.214v-1.14c1.941.035 2.539.104 6.198.104 3.884 0 4.855-.035 6.759-.138v1.244c-1.642.173-3.061.415-3.547 1.279-.71 1.245-.822 9.821-.822 11.93v7.261c-.037 2.939 0 4.39.449 5.083.41.691 1.643.691 3.958.691 9.896 0 11.091-2.075 11.912-4.287l1.233.138h.037zm30.397-19.807c-1.717-1.211-5.489-1.211-7.543-1.211-2.054 0-2.277 0-3.211.139-.189 4.114-.412 12.102-.412 20.227 0 5.014.448 5.083 2.764 5.532 1.831.243 2.054.243 2.502.346l-.148 1.175c-.412 0-1.532-.103-2.615-.138a31.118 31.118 0 0 0-2.392-.138c-4.928 0-5.487 0-10.642.761l-.448-1.21c.822-.208 4.594-1.073 5.005-1.695.598-.865.671-10.373.671-11.929 0-4.287 0-10.995-.523-12.862-1.42-.104-2.091-.138-4.741-.138-6.461 0-6.872.864-7.693 2.801l-1.27-.278c1.27-2.938 1.718-4.494 2.054-5.428h.859c.411.277 1.381.519 2.053.554 2.055.242 9.636.242 12.287.242 3.734 0 11.166-.035 14.303-.208.709-.034.857-.103 1.157-.276l.745.414c-.411 1.037-1.231 2.904-1.419 4.945l-1.529.242.186-1.798v-.069zm26.292 12.131c0 1.798 0 10.372.185 11.306.263 1.003 3.101 1.556 4.221 1.695l-.112 1.071c-.823-.104-1.944-.173-3.063-.242a38.196 38.196 0 0 0-3.398-.138c-.559 0-2.203.104-3.77.207-1.532.104-3.101.173-3.623.173v-1.071c3.211-.242 3.734-.9 4.031-1.833.3-1.003.3-7.503.3-9.163 0-.553 0-.795-.037-1.659-1.569-2.352-2.911-4.323-8.214-10.892-1.943-2.214-3.474-3.977-6.686-3.977l-.186-1.14c.523 0 1.94.034 3.398.034 1.493.035 2.951.104 3.474.104l6.982-.104-.188 1.279c-.449 0-2.689 0-2.689.865 0 .864 5.603 8.021 8.666 11.444 6.423-9.301 6.72-9.75 6.72-10.788 0-1.417-1.717-1.417-3.175-1.452l.149-1.382c.449 0 1.383.034 2.429.103 1.009.035 2.203.104 3.063.104.819 0 4.331-.104 5.077-.104v1.522c-3.546.034-5.414 1.278-11.501 10.788l-2.09 3.216.037.034zm43.762-8.699c5.975 0 10.792 4.287 10.792 9.82 0 5.082-4.332 9.888-11.017 9.888-6.683 0-11.015-4.736-11.015-10.027 0-5.912 5.489-9.681 11.204-9.681h.036zm.523 18.603c2.092 0 6.498-1.176 6.498-6.778 0-3.942-2.054-10.649-7.918-10.649-1.568 0-6.46.656-6.46 6.846 0 5.013 2.578 10.581 7.88 10.581zm-226.07-8.266c1.382.208 3.323.415 5.489.415 1.681 0 2.503-.104 3.324-.207-1.382-3.493-2.801-7.088-4.481-10.235l-4.332 9.993v.034z" style="fill:#1e3765"/></svg>