<svg xmlns="http://www.w3.org/2000/svg" width="33" height="37"   ><path d="M30.834 15.143c-.444-.705-.81-1.458-1.094-2.245C29.74 5.499 23.662.824 17.203.004a.79.79 0 0 0-.324.037.8.8 0 0 0-.284.165c-.079.073-.142.161-.186.26a.82.82 0 0 0-.072.313v4.907a.78.78 0 0 0 .223.547c.142.145.336.227.537.227h1.14c.554 0 1.102.112 1.613.33s.975.537 1.363.939.695.878.902 1.402.309 1.084.301 1.648v.697a.8.8 0 0 0 .078.335c.05.104.122.196.211.269.265.215.48.488.627.799s.224.652.224.997c0 .616-.24 1.206-.668 1.642a2.26 2.26 0 0 1-3.224 0c-.428-.435-.668-1.026-.668-1.642-.001-.347.077-.689.227-1.001a2.25 2.25 0 0 1 .639-.795.82.82 0 0 0 .2-.272.83.83 0 0 0 .074-.331v-.697c0-.513-.2-1.005-.556-1.368a1.88 1.88 0 0 0-1.343-.567h-1.14c-.201 0-.395.082-.537.227a.78.78 0 0 0-.223.547v8.049a.8.8 0 0 0 .078.335.79.79 0 0 0 .21.269c.266.215.48.488.627.799s.224.652.224.997c0 .616-.24 1.206-.668 1.642a2.26 2.26 0 0 1-3.224 0c-.428-.435-.668-1.026-.668-1.642-.001-.347.077-.689.227-1.001a2.25 2.25 0 0 1 .639-.795.82.82 0 0 0 .2-.272c.047-.104.072-.217.074-.331V9.555a.78.78 0 0 0-.223-.547c-.143-.145-.336-.227-.537-.227h-1.14a1.87 1.87 0 0 0-.741.153 1.9 1.9 0 0 0-.624.435 1.94 1.94 0 0 0-.408.649c-.092.242-.135.5-.127.76v.697a.8.8 0 0 0 .078.335c.05.104.122.196.21.269.265.215.48.488.627.799s.224.652.224.997c0 .616-.24 1.206-.668 1.642a2.26 2.26 0 0 1-3.224 0c-.427-.435-.668-1.026-.668-1.642-.01-.357.063-.712.214-1.035s.374-.605.653-.823a.82.82 0 0 0 .199-.272c.047-.104.072-.217.074-.331v-.635c-.008-.564.094-1.124.3-1.648s.513-1 .902-1.402.852-.721 1.363-.939 1.06-.33 1.613-.33h1.14c.202 0 .395-.082.537-.227a.78.78 0 0 0 .223-.547V.793a.79.79 0 0 0-.065-.319c-.044-.101-.108-.19-.189-.264s-.175-.128-.278-.161-.212-.043-.319-.03c-3.674.467-7.05 2.296-9.486 5.136S-.039 11.65.001 15.421c0 5.495 1.991 9.597 5.911 12.213a.37.37 0 0 1 .126.14c.029.057.044.121.041.185v8.266a.78.78 0 0 0 .223.547c.142.145.336.227.537.227h15.196c.201 0 .395-.081.537-.227a.78.78 0 0 0 .223-.547v-5a.39.39 0 0 1 .111-.274c.071-.073.168-.113.269-.113h2.659c1.008 0 1.974-.408 2.686-1.133s1.113-1.71 1.113-2.736v-3.468a.36.36 0 0 1 .033-.145c.021-.045.051-.086.088-.118s.082-.055.129-.068.096-.016.145-.009h1.2c.246.001.49-.05.716-.151s.428-.248.594-.434.292-.404.37-.642a1.83 1.83 0 0 0 .083-.739 12.06 12.06 0 0 0-2.158-6.053z"/></svg>