<svg xmlns="http://www.w3.org/2000/svg" width="56" height="53" fill="none" xmlns:v="https://vecta.io/nano"><rect width="56" height="53" rx="26.5" fill="#fff"/><path d="M20 35.264c.006.357.11.706.3 1.008s.46.547.779.706c.319.18.679.275 1.046.275s.727-.095 1.046-.275L38 27.806a1.9 1.9 0 0 0 .785-.702c.191-.303.292-.654.292-1.012s-.101-.709-.292-1.012a1.9 1.9 0 0 0-.785-.702l-14.829-9.103c-.319-.18-.679-.275-1.046-.275s-.727.095-1.046.275c-.319.16-.589.404-.779.706s-.294.651-.3 1.008v18.274z" fill="#007fa3" stroke="#fff" stroke-width="1.714" stroke-linejoin="round"/></svg>