<svg xmlns="http://www.w3.org/2000/svg" width="28" height="28"   ><path d="M19.662 26.911H9.248A7.26 7.26 0 0 1 2 19.664V9.249A7.26 7.26 0 0 1 9.248 2h10.414a7.26 7.26 0 0 1 7.248 7.248v10.414a7.26 7.26 0 0 1-7.248 7.248v.001zM9.248 4.212c-2.777 0-5.037 2.259-5.037 5.037v10.414c0 2.777 2.259 5.037 5.037 5.037h10.414c2.777 0 5.037-2.259 5.037-5.037V9.249c0-2.777-2.259-5.037-5.037-5.037H9.248zm4.208 16.647c-3.53 0-6.403-2.873-6.403-6.403s2.873-6.403 6.403-6.403 6.403 2.873 6.403 6.403-2.873 6.403-6.403 6.403zm0-10.595a4.2 4.2 0 0 0-4.192 4.192 4.2 4.2 0 0 0 4.192 4.192 4.2 4.2 0 0 0 4.192-4.192 4.2 4.2 0 0 0-4.192-4.192zm8.081-2.118c.187-.788-.3-1.578-1.088-1.765s-1.578.3-1.765 1.088.3 1.578 1.088 1.765 1.578-.3 1.765-1.088z"/></svg>