<svg xmlns="http://www.w3.org/2000/svg" width="31" height="28"  xmlns:v="https://vecta.io/nano"><path d="M30.65 11.414l-.305-4.112c-.31-2.358-1.71-3.718-4.328-3.959C24.151 3.187 20.725 3 15.495 3h-.037c-5.229 0-8.656.187-10.521.343C2.319 3.584.919 4.944.609 7.302.477 8.197.372 9.983.304 11.414c-.067 1.41-.067 2.824 0 4.236.068 1.431.173 3.216.305 4.112.31 2.358 1.71 3.718 4.328 3.959 1.865.157 5.292.343 10.521.343h.037c5.229 0 8.656-.186 10.521-.343 2.618-.241 4.018-1.601 4.328-3.959.132-.895.237-2.681.305-4.112.067-1.412.067-2.824 0-4.236z" /><path d="M12.16 8.121v10.806l8.438-5.395-8.438-5.41z" fill="#ffffff"/></svg>