<svg xmlns="http://www.w3.org/2000/svg" width="28" height="28"  xmlns:v="https://vecta.io/nano"><path d="M1.001 23.002c11.414 6.809 24.448-1.511 24.034-13.665 1.039-.741 1.97-1.661 2.776-2.781-1.075.432-2.123.711-3.142.815 1.166-.728 1.99-1.693 2.362-2.973-.998.593-2.16 1.023-3.457 1.318-3.921-3.908-10.459-.659-9.375 4.893-4.389-.137-8.255-2.087-11.342-5.616-1.445 2.702-.705 5.421 1.674 7.197-.879-.012-1.695-.251-2.46-.671.07 2.667 1.494 4.618 4.371 5.384-.795.232-1.616.245-2.455.083.871 2.277 2.539 3.603 5.128 3.769C6.844 22.502 3.964 23.369 1 23.003l.001-.001z" /></svg>