<svg xmlns="http://www.w3.org/2000/svg" width="22" height="22"   ><path d="M16.317 2.031a3.57 3.57 0 0 0-2.167.766c-.042.033-.077.075-.102.122s-.042.099-.048.153a.37.37 0 0 0 .022.163.36.36 0 0 0 .091.136l1.785 1.83-.96.819A6.59 6.59 0 0 0 11 4.71a6.59 6.59 0 0 0-3.938 1.31l-.96-.85 1.785-1.8a.36.36 0 0 0 .098-.15c.02-.058.025-.119.015-.179a.38.38 0 0 0-.045-.155c-.026-.048-.062-.089-.105-.121-.622-.489-1.383-.757-2.167-.766-.486 0-.967.098-1.416.289a3.68 3.68 0 0 0-1.198.823c-.342.352-.613.771-.796 1.23A3.83 3.83 0 0 0 2 5.791a3.74 3.74 0 0 0 .75 2.213.37.37 0 0 0 .118.107c.047.026.098.042.152.046s.098-.009.143-.029.086-.049.119-.086L5.038 6.25l.907.766a6.93 6.93 0 0 0-1.323 2.365 7.03 7.03 0 0 0-.322 2.704c.07.914.318 1.805.729 2.62a6.87 6.87 0 0 0 1.666 2.127l-1.852 1.853c-.07.071-.126.156-.164.249a.78.78 0 0 0 0 .589c.038.093.094.178.164.249a.75.75 0 0 0 .244.168c.091.039.189.059.288.059s.197-.02.288-.059a.75.75 0 0 0 .244-.168l2.025-2.068c.949.498 2 .759 3.068.759s2.119-.26 3.067-.759l2.025 2.068a.75.75 0 0 0 .244.168c.091.039.189.059.288.059s.197-.02.288-.059a.75.75 0 0 0 .244-.168.77.77 0 0 0 .164-.249.78.78 0 0 0 0-.589.77.77 0 0 0-.164-.249l-1.815-1.846A6.87 6.87 0 0 0 17 14.707a7 7 0 0 0 .719-2.622c.066-.914-.046-1.833-.332-2.702a6.93 6.93 0 0 0-1.331-2.36l.907-.766 1.755 1.784c.034.037.074.066.119.086s.094.03.143.029a.36.36 0 0 0 .151-.046.37.37 0 0 0 .119-.107A3.74 3.74 0 0 0 20 5.791a3.8 3.8 0 0 0-1.079-2.659c-.691-.705-1.627-1.101-2.604-1.101zm-2.692 10.146H11c-.149-.002-.291-.063-.396-.17a.59.59 0 0 1-.167-.404V7.391a.58.58 0 0 1 .165-.406c.106-.108.249-.168.398-.168s.292.061.398.168a.58.58 0 0 1 .165.406v3.637h2.062c.149 0 .292.061.398.168a.58.58 0 0 1 0 .812c-.106.108-.249.168-.398.168z" /></svg>