<svg xmlns="http://www.w3.org/2000/svg" width="53" height="37" fill="none" xmlns:v="https://vecta.io/nano"><path d="M27.596 6.167a.77.77 0 0 1-.617-.755V3.083c0-.818-.325-1.602-.903-2.18S24.714 0 23.896 0H4.625c-1.227 0-2.403.487-3.27 1.355S0 3.398 0 4.625v27.75c0 1.227.487 2.403 1.355 3.27S3.398 37 4.625 37h22.354c.818 0 1.602-.325 2.18-.903s.903-1.362.903-2.18V9.25c.015-.721-.224-1.425-.675-1.988s-1.085-.951-1.792-1.095zm-4.471 14.26a.4.4 0 0 1-.245.345.4.4 0 0 1-.418-.067l-2.914-2.929c-.076-.068-.175-.106-.277-.106s-.201.038-.277.106l-2.914 2.929a.4.4 0 0 1-.432 0c-.069-.03-.128-.08-.169-.143s-.063-.137-.063-.212V8.865c0-.102.041-.2.113-.273s.17-.113.272-.113h6.938c.102 0 .2.041.273.113s.113.17.113.273v11.563zm.771-14.708c.009.056.006.112-.01.166s-.042.104-.079.147-.082.077-.134.1-.107.035-.163.034H4.625a1.54 1.54 0 0 1-1.542-1.542 1.54 1.54 0 0 1 1.542-1.542H23.51c.102 0 .2.041.273.113s.113.17.113.273V5.72z" fill="#007fa3"/><circle cx="34.5" cy="18.5" r="18.5" fill="#6fc7ea" style="mix-blend-mode:multiply"/></svg>