<svg width="21" height="21" viewBox="0 0 21 21" fill="none" xmlns="http://www.w3.org/2000/svg">
<path d="M10.25 0.295816L4.37 6.22582C4.31976 6.26903 4.25624 6.29373 4.19 6.29582H2C1.46957 6.29582 0.960859 6.50653 0.585786 6.8816C0.210714 7.25668 0 7.76538 0 8.29582V11.7158C0 12.2462 0.210714 12.755 0.585786 13.13C0.960859 13.5051 1.46957 13.7158 2 13.7158H4.19C4.22322 13.7144 4.25637 13.7199 4.28735 13.7319C4.31834 13.744 4.34648 13.7623 4.37 13.7858L10.25 19.7058C10.3893 19.8462 10.5671 19.9422 10.7609 19.9816C10.9547 20.021 11.1558 20.002 11.3389 19.9271C11.5219 19.8522 11.6786 19.7246 11.7892 19.5607C11.8997 19.3967 11.9592 19.2036 11.96 19.0058V1.00582C11.9612 0.807191 11.9031 0.612722 11.7933 0.447202C11.6835 0.281683 11.5269 0.152612 11.3435 0.0764449C11.16 0.000278115 10.9581 -0.0195334 10.7633 0.0195363C10.5686 0.0586059 10.3899 0.154787 10.25 0.295816Z" fill="black"/>
<path d="M17.5899 3.00674C17.497 2.91301 17.3864 2.83861 17.2645 2.78784C17.1427 2.73708 17.012 2.71094 16.8799 2.71094C16.7479 2.71094 16.6172 2.73708 16.4954 2.78784C16.3735 2.83861 16.2629 2.91301 16.1699 3.00674C15.9837 3.1941 15.8792 3.44755 15.8792 3.71174C15.8792 3.97592 15.9837 4.22937 16.1699 4.41674C16.9089 5.15424 17.4952 6.03024 17.8952 6.99459C18.2952 7.95894 18.5011 8.99271 18.5011 10.0367C18.5011 11.0808 18.2952 12.1145 17.8952 13.0789C17.4952 14.0432 16.9089 14.9192 16.1699 15.6567C15.9837 15.8441 15.8792 16.0975 15.8792 16.3617C15.8792 16.6259 15.9837 16.8794 16.1699 17.0667C16.2629 17.1605 16.3735 17.2349 16.4954 17.2856C16.6172 17.3364 16.7479 17.3625 16.8799 17.3625C17.012 17.3625 17.1427 17.3364 17.2645 17.2856C17.3864 17.2349 17.497 17.1605 17.5899 17.0667C19.4524 15.2012 20.4985 12.6728 20.4985 10.0367C20.4985 7.40063 19.4524 4.87226 17.5899 3.00674Z" fill="black"/>
<path d="M15.14 5.5065C15.0474 5.41326 14.9374 5.33917 14.8162 5.28846C14.6949 5.23775 14.5649 5.21141 14.4335 5.21094C14.3021 5.21048 14.1719 5.2359 14.0504 5.28575C13.9288 5.33561 13.8182 5.40892 13.725 5.5015C13.6318 5.59408 13.5577 5.70412 13.507 5.82534C13.4562 5.94655 13.4299 6.07657 13.4294 6.20796C13.429 6.33936 13.4544 6.46956 13.5042 6.59113C13.5541 6.7127 13.6274 6.82326 13.72 6.9165C14.5371 7.73732 14.9958 8.84834 14.9958 10.0065C14.9958 11.1647 14.5371 12.2757 13.72 13.0965C13.5337 13.2839 13.4292 13.5373 13.4292 13.8015C13.4292 14.0657 13.5337 14.3191 13.72 14.5065C13.813 14.6002 13.9236 14.6746 14.0454 14.7254C14.1673 14.7762 14.298 14.8023 14.43 14.8023C14.562 14.8023 14.6927 14.7762 14.8146 14.7254C14.9364 14.6746 15.047 14.6002 15.14 14.5065C16.332 13.3122 17.0015 11.6938 17.0015 10.0065C17.0015 8.31916 16.332 6.70076 15.14 5.5065Z" fill="black"/>
</svg>
