<svg width="100" height="100" viewBox="0 0 100 100" fill="none" xmlns="http://www.w3.org/2000/svg">
<rect x="0.05" y="0.05" width="99.9" height="99.9" fill="white"/>
<rect x="0.05" y="0.05" width="99.9" height="99.9" stroke="black" stroke-width="0.1"/>
<g clip-path="url(#clip0_1_464)">
<rect x="5" width="6" height="100" fill="#FF0808" fill-opacity="0.1"/>
<rect x="13" width="5" height="100" fill="#FF0808" fill-opacity="0.1"/>
<rect x="20" width="6" height="100" fill="#FF0808" fill-opacity="0.1"/>
<rect x="28" width="6" height="100" fill="#FF0808" fill-opacity="0.1"/>
<rect x="36" width="5" height="100" fill="#FF0808" fill-opacity="0.1"/>
<rect x="43" width="6" height="100" fill="#FF0808" fill-opacity="0.1"/>
<rect x="51" width="6" height="100" fill="#FF0808" fill-opacity="0.1"/>
<rect x="59" width="5" height="100" fill="#FF0808" fill-opacity="0.1"/>
<rect x="66" width="6" height="100" fill="#FF0808" fill-opacity="0.1"/>
<rect x="74" width="6" height="100" fill="#FF0808" fill-opacity="0.1"/>
<rect x="82" width="5" height="100" fill="#FF0808" fill-opacity="0.1"/>
<rect x="89" width="6" height="100" fill="#FF0808" fill-opacity="0.1"/>
</g>
<g clip-path="url(#clip1_1_464)">
<path d="M5.5 15.5H48.3261V30.5H5.5V15.5Z" fill="#F5F5F2" stroke="#666666"/>
<path d="M51.3261 15.5H94.3261V30.5H51.3261V15.5Z" fill="#F5F5F2" stroke="#666666"/>
<path d="M5.5 33.5H48.3261V48.5H5.5V33.5Z" fill="#F5F5F2" stroke="#666666"/>
<path d="M51.3261 33.5H94.3261V48.5H51.3261V33.5Z" fill="#F5F5F2" stroke="#666666"/>
<path d="M5.5 51.5H48.3261V66.5H5.5V51.5Z" fill="#F5F5F2" stroke="#666666"/>
<path d="M51.3261 51.5H94.3261V66.5H51.3261V51.5Z" fill="#F5F5F2" stroke="#666666"/>
<path d="M5.5 69.5H48.3261V84.5H5.5V69.5Z" fill="#F5F5F2" stroke="#666666"/>
<path d="M51.3261 69.5H94.3261V84.5H51.3261V69.5Z" fill="#F5F5F2" stroke="#666666"/>
</g>
<defs>
<clipPath id="clip0_1_464">
<rect width="90" height="100" fill="white" transform="translate(5)"/>
</clipPath>
<clipPath id="clip1_1_464">
<rect width="89.8261" height="70" fill="white" transform="translate(5 15)"/>
</clipPath>
</defs>
</svg>
