<svg width="100" height="100" viewBox="0 0 100 100" fill="none" xmlns="http://www.w3.org/2000/svg">
<rect x="0.05" y="0.05" width="99.9" height="99.9" fill="white"/>
<rect x="0.05" y="0.05" width="99.9" height="99.9" stroke="black" stroke-width="0.1"/>
<mask id="path-2-outside-1_25_196" maskUnits="userSpaceOnUse" x="0" y="9" width="100" height="81" fill="black">
<rect fill="white" y="9" width="100" height="81"/>
<path d="M0 10H100V89H0V10Z"/>
</mask>
<path d="M0 89.5H1V88.5H0V89.5ZM3 89.5H5V88.5H3V89.5ZM7 89.5H9V88.5H7V89.5ZM11 89.5H13V88.5H11V89.5ZM15 89.5H17V88.5H15V89.5ZM19 89.5H21V88.5H19V89.5ZM23 89.5H25V88.5H23V89.5ZM27 89.5H29V88.5H27V89.5ZM31 89.5H33V88.5H31V89.5ZM35 89.5H37V88.5H35V89.5ZM39 89.5H41V88.5H39V89.5ZM43 89.5H45V88.5H43V89.5ZM47 89.5H49V88.5H47V89.5ZM51 89.5H53V88.5H51V89.5ZM55 89.5H57V88.5H55V89.5ZM59 89.5H61V88.5H59V89.5ZM63 89.5H65V88.5H63V89.5ZM67 89.5H69V88.5H67V89.5ZM71 89.5H73V88.5H71V89.5ZM75 89.5H77V88.5H75V89.5ZM79 89.5H81V88.5H79V89.5ZM83 89.5H85V88.5H83V89.5ZM87 89.5H89V88.5H87V89.5ZM91 89.5H93V88.5H91V89.5ZM95 89.5H97V88.5H95V89.5ZM99 89.5H100V88.5H99V89.5ZM100 9.5H99V10.5H100V9.5ZM97 9.5H95V10.5H97V9.5ZM93 9.5H91V10.5H93V9.5ZM89 9.5H87V10.5H89V9.5ZM85 9.5H83V10.5H85V9.5ZM81 9.5H79V10.5H81V9.5ZM77 9.5H75V10.5H77V9.5ZM73 9.5H71V10.5H73V9.5ZM69 9.5H67V10.5H69V9.5ZM65 9.5H63V10.5H65V9.5ZM61 9.5H59V10.5H61V9.5ZM57 9.5H55V10.5H57V9.5ZM53 9.5H51V10.5H53V9.5ZM49 9.5H47V10.5H49V9.5ZM45 9.5H43V10.5H45V9.5ZM41 9.5H39V10.5H41V9.5ZM37 9.5H35V10.5H37V9.5ZM33 9.5H31V10.5H33V9.5ZM29 9.5H27V10.5H29V9.5ZM25 9.5H23V10.5H25V9.5ZM21 9.5H19V10.5H21V9.5ZM17 9.5H15V10.5H17V9.5ZM13 9.5H11V10.5H13V9.5ZM9 9.5H7V10.5H9V9.5ZM5 9.5H3V10.5H5V9.5ZM0.999999 9.5H0V10.5H0.999999V9.5ZM0 90H1V88H0V90ZM3 90H5V88H3V90ZM7 90H9V88H7V90ZM11 90H13V88H11V90ZM15 90H17V88H15V90ZM19 90H21V88H19V90ZM23 90H25V88H23V90ZM27 90H29V88H27V90ZM31 90H33V88H31V90ZM35 90H37V88H35V90ZM39 90H41V88H39V90ZM43 90H45V88H43V90ZM47 90H49V88H47V90ZM51 90H53V88H51V90ZM55 90H57V88H55V90ZM59 90H61V88H59V90ZM63 90H65V88H63V90ZM67 90H69V88H67V90ZM71 90H73V88H71V90ZM75 90H77V88H75V90ZM79 90H81V88H79V90ZM83 90H85V88H83V90ZM87 90H89V88H87V90ZM91 90H93V88H91V90ZM95 90H97V88H95V90ZM99 90H100V88H99V90ZM100 9H99V11H100V9ZM97 9H95V11H97V9ZM93 9H91V11H93V9ZM89 9H87V11H89V9ZM85 9H83V11H85V9ZM81 9H79V11H81V9ZM77 9H75V11H77V9ZM73 9H71V11H73V9ZM69 9H67V11H69V9ZM65 9H63V11H65V9ZM61 9H59V11H61V9ZM57 9H55V11H57V9ZM53 9H51V11H53V9ZM49 9H47V11H49V9ZM45 9H43V11H45V9ZM41 9H39V11H41V9ZM37 9H35V11H37V9ZM33 9H31V11H33V9ZM29 9H27V11H29V9ZM25 9H23V11H25V9ZM21 9H19V11H21V9ZM17 9H15V11H17V9ZM13 9H11V11H13V9ZM9 9H7V11H9V9ZM5 9H3V11H5V9ZM0.999999 9H0V11H0.999999V9Z" fill="#666666" mask="url(#path-2-outside-1_25_196)"/>
<path d="M5.5 12.5H33.3261V86.5H5.5V12.5Z" fill="#F5F5F2" stroke="#666666"/>
<path d="M36.5 12.5H63.5V86.5H36.5V12.5Z" fill="#F5F5F2" stroke="#666666"/>
<path d="M66.5 12.5H94.5V86.5H66.5V12.5Z" fill="#F5F5F2" stroke="#666666"/>
</svg>
